<svg width="105" height="22" viewBox="0 0 105 22" fill="none" xmlns="http://www.w3.org/2000/svg">
<path d="M12.216 19.624C12.216 20.072 12.0453 20.4133 11.704 20.648C11.384 20.8827 11.0213 21 10.616 21C10.2107 21 9.83733 20.8827 9.496 20.648C9.176 20.4133 9.016 20.072 9.016 19.624V15.784C9.016 14.7813 8.728 14.0347 8.152 13.544C7.576 13.032 6.936 12.776 6.232 12.776C5.89067 12.776 5.54933 12.84 5.208 12.968C4.888 13.096 4.6 13.288 4.344 13.544C4.088 13.7787 3.87467 14.088 3.704 14.472C3.55467 14.8347 3.48 15.272 3.48 15.784V19.624C3.48 20.072 3.30933 20.4133 2.968 20.648C2.648 20.8827 2.28533 21 1.88 21C1.47467 21 1.10133 20.8827 0.76 20.648C0.44 20.4133 0.28 20.072 0.28 19.624V6.792C0.28 5.768 0.450667 4.872 0.792 4.104C1.13333 3.31467 1.58133 2.664 2.136 2.152C2.712 1.61867 3.352 1.224 4.056 0.967999C4.78133 0.711999 5.51733 0.584 6.264 0.584C7.01067 0.584 7.736 0.711999 8.44 0.967999C9.16533 1.224 9.80533 1.61867 10.36 2.152C10.9147 2.664 11.3627 3.31467 11.704 4.104C12.0453 4.872 12.216 5.768 12.216 6.792V19.624ZM9.016 6.824C9.016 5.82133 8.728 5.07467 8.152 4.584C7.576 4.072 6.936 3.816 6.232 3.816C5.89067 3.816 5.54933 3.88 5.208 4.008C4.888 4.136 4.6 4.328 4.344 4.584C4.088 4.81867 3.87467 5.128 3.704 5.512C3.55467 5.87467 3.48 6.312 3.48 6.824V10.216C4.376 9.78933 5.368 9.576 6.456 9.576C7.39467 9.576 8.248 9.736 9.016 10.056V6.824ZM21.372 21C20.6467 21 19.964 20.9147 19.324 20.744C18.7053 20.5733 18.1293 20.3387 17.596 20.04C17.4893 20.3813 17.2653 20.6373 16.924 20.808C16.5827 20.9573 16.2307 21.0213 15.868 21C15.5053 20.9573 15.1747 20.8187 14.876 20.584C14.5987 20.3493 14.46 20.0293 14.46 19.624V1.992C14.46 1.544 14.62 1.20267 14.94 0.967999C15.2813 0.733332 15.6547 0.615999 16.06 0.615999C16.4653 0.615999 16.828 0.733332 17.148 0.967999C17.4893 1.20267 17.66 1.544 17.66 1.992V8.072C18.7267 7.45333 19.964 7.144 21.372 7.144C22.9293 7.144 24.22 7.48533 25.244 8.168C26.2893 8.85067 27.068 9.704 27.58 10.728C28.092 11.752 28.348 12.872 28.348 14.088C28.348 15.2827 28.092 16.392 27.58 17.416C27.068 18.44 26.2893 19.2933 25.244 19.976C24.22 20.6587 22.9293 21 21.372 21ZM21.372 10.344C20.2627 10.344 19.3667 10.664 18.684 11.304C18.0013 11.9227 17.66 12.84 17.66 14.056C17.66 15.2933 18.0013 16.232 18.684 16.872C19.3667 17.4907 20.2627 17.8 21.372 17.8C22.2253 17.8 22.9293 17.6187 23.484 17.256C24.06 16.872 24.4867 16.4133 24.764 15.88C25.0413 15.3253 25.18 14.728 25.18 14.088C25.18 13.4267 25.0307 12.8293 24.732 12.296C24.4547 11.7413 24.0387 11.2827 23.484 10.92C22.9293 10.536 22.2253 10.344 21.372 10.344ZM36.6868 21C35.1294 21 33.8281 20.6587 32.7828 19.976C31.7588 19.2933 30.9908 18.44 30.4788 17.416C29.9668 16.392 29.7108 15.2827 29.7108 14.088C29.7108 12.872 29.9668 11.752 30.4788 10.728C30.9908 9.704 31.7588 8.85067 32.7828 8.168C33.8281 7.48533 35.1294 7.144 36.6868 7.144C37.7108 7.144 38.6494 7.31467 39.5028 7.656C40.3561 7.976 41.0814 8.44533 41.6788 9.064C42.2974 9.66133 42.7668 10.3867 43.0868 11.24C43.4281 12.0933 43.5988 13.032 43.5988 14.056C43.5988 15.1013 43.4281 16.0507 43.0868 16.904C42.7668 17.7573 42.2974 18.4933 41.6788 19.112C41.0814 19.7093 40.3561 20.1787 39.5028 20.52C38.6494 20.84 37.7108 21 36.6868 21ZM36.6868 10.344C35.8548 10.344 35.1508 10.536 34.5748 10.92C34.0201 11.2827 33.5934 11.7413 33.2948 12.296C33.0174 12.8293 32.8788 13.4267 32.8788 14.088C32.8788 14.728 33.0174 15.3253 33.2948 15.88C33.5721 16.4133 33.9881 16.872 34.5428 17.256C35.1188 17.6187 35.8334 17.8 36.6868 17.8C37.7961 17.8 38.6921 17.4907 39.3748 16.872C40.0574 16.232 40.3988 15.2933 40.3988 14.056C40.3988 12.84 40.0574 11.9227 39.3748 11.304C38.6921 10.664 37.7961 10.344 36.6868 10.344ZM57.4585 14.824C57.4585 16.2107 57.1598 17.3627 56.5625 18.28C55.9865 19.1973 55.2505 19.8907 54.3545 20.36C53.4798 20.808 52.5198 21.0213 51.4745 21C50.4505 21 49.4905 20.776 48.5945 20.328C47.7198 19.8587 46.9838 19.1653 46.3865 18.248C45.8105 17.3307 45.5225 16.1893 45.5225 14.824V8.52C45.5225 8.072 45.6825 7.73067 46.0025 7.496C46.3438 7.26133 46.7172 7.144 47.1225 7.144C47.5278 7.144 47.8905 7.26133 48.2105 7.496C48.5518 7.73067 48.7225 8.072 48.7225 8.52V14.792C48.7225 15.7947 49.0105 16.552 49.5865 17.064C50.1625 17.5547 50.7918 17.8 51.4745 17.8C52.1785 17.8 52.8185 17.5547 53.3945 17.064C53.9705 16.552 54.2585 15.7947 54.2585 14.792V8.52C54.2585 8.072 54.4185 7.73067 54.7385 7.496C55.0798 7.26133 55.4532 7.144 55.8585 7.144C56.2638 7.144 56.6265 7.26133 56.9465 7.496C57.2878 7.73067 57.4585 8.072 57.4585 8.52V14.824ZM64.7573 14.664C64.7573 15.4533 64.8319 16.0933 64.9813 16.584C65.1519 17.0533 65.3653 17.416 65.6213 17.672C65.8773 17.928 66.1653 18.0987 66.4853 18.184C66.8266 18.248 67.1679 18.28 67.5093 18.28C67.9573 18.28 68.2986 18.4507 68.5333 18.792C68.7679 19.112 68.8853 19.4747 68.8853 19.88C68.8853 20.2853 68.7679 20.6587 68.5333 21C68.2986 21.32 67.9573 21.48 67.5093 21.48C66.7626 21.48 66.0266 21.3627 65.3013 21.128C64.5973 20.9147 63.9679 20.552 63.4133 20.04C62.8586 19.5067 62.4106 18.8027 62.0693 17.928C61.7279 17.0533 61.5573 15.9653 61.5573 14.664V10.344H60.1173C59.6693 10.344 59.3279 10.184 59.0933 9.864C58.8586 9.52267 58.7413 9.14933 58.7413 8.744C58.7413 8.33867 58.8586 7.976 59.0933 7.656C59.3279 7.31467 59.6693 7.144 60.1173 7.144H61.5573V4.04C61.5573 3.592 61.7173 3.25067 62.0373 3.016C62.3786 2.78133 62.7519 2.664 63.1573 2.664C63.5626 2.664 63.9253 2.78133 64.2453 3.016C64.5866 3.25067 64.7573 3.592 64.7573 4.04V7.144H66.8373C67.2853 7.144 67.6266 7.31467 67.8613 7.656C68.0959 7.976 68.2133 8.33867 68.2133 8.744C68.2133 9.14933 68.0959 9.52267 67.8613 9.864C67.6266 10.184 67.2853 10.344 66.8373 10.344H64.7573V14.664ZM90.7398 14.824C90.7398 16.2107 90.4411 17.3627 89.8438 18.28C89.2678 19.1973 88.5318 19.8907 87.6358 20.36C86.7611 20.808 85.8011 21.0213 84.7558 21C83.7318 21 82.7718 20.776 81.8758 20.328C81.0011 19.8587 80.2651 19.1653 79.6678 18.248C79.0918 17.3307 78.8038 16.1893 78.8038 14.824V8.52C78.8038 8.072 78.9638 7.73067 79.2838 7.496C79.6251 7.26133 79.9984 7.144 80.4038 7.144C80.8091 7.144 81.1718 7.26133 81.4918 7.496C81.8331 7.73067 82.0038 8.072 82.0038 8.52V14.792C82.0038 15.7947 82.2918 16.552 82.8678 17.064C83.4438 17.5547 84.0731 17.8 84.7558 17.8C85.4598 17.8 86.0998 17.5547 86.6758 17.064C87.2518 16.552 87.5398 15.7947 87.5398 14.792V8.52C87.5398 8.072 87.6998 7.73067 88.0198 7.496C88.3611 7.26133 88.7344 7.144 89.1398 7.144C89.5451 7.144 89.9078 7.26133 90.2278 7.496C90.5691 7.73067 90.7398 8.072 90.7398 8.52V14.824ZM92.8075 11.272C92.7862 10.5253 92.9355 9.864 93.2555 9.288C93.5755 8.712 94.0022 8.232 94.5355 7.848C95.0902 7.464 95.7088 7.176 96.3915 6.984C97.0955 6.77067 97.8102 6.65333 98.5355 6.632C99.7515 6.58933 100.872 6.81333 101.896 7.304C102.941 7.79467 103.709 8.54133 104.2 9.544C104.52 10.2267 104.605 10.792 104.456 11.24C104.328 11.6667 104.082 11.9547 103.72 12.104C103.357 12.2533 102.941 12.2533 102.472 12.104C102.024 11.9547 101.64 11.6453 101.32 11.176C100.914 10.5147 100.52 10.088 100.135 9.896C99.7515 9.704 99.2715 9.59733 98.6955 9.576C98.2902 9.55467 97.9062 9.58667 97.5435 9.672C97.2022 9.75733 96.9035 9.88533 96.6475 10.056C96.4128 10.2053 96.2315 10.3867 96.1035 10.6C95.9755 10.8133 95.9435 11.048 96.0075 11.304C96.0715 11.6453 96.3275 11.9013 96.7755 12.072C97.2235 12.2427 97.7568 12.392 98.3755 12.52C99.0155 12.648 99.6982 12.7867 100.424 12.936C101.149 13.0853 101.821 13.3093 102.44 13.608C103.058 13.9067 103.57 14.312 103.976 14.824C104.381 15.336 104.594 16.0293 104.616 16.904C104.616 17.6293 104.456 18.28 104.136 18.856C103.837 19.432 103.421 19.9227 102.888 20.328C102.354 20.7333 101.746 21.032 101.064 21.224C100.381 21.4373 99.6875 21.544 98.9835 21.544C98.3862 21.544 97.7888 21.48 97.1915 21.352C96.5942 21.224 96.0288 21.032 95.4955 20.776C94.9622 20.52 94.4715 20.1893 94.0235 19.784C93.5968 19.3787 93.2448 18.888 92.9675 18.312C92.6475 17.672 92.5622 17.128 92.7115 16.68C92.8608 16.2107 93.1062 15.88 93.4475 15.688C93.8102 15.4747 94.2155 15.432 94.6635 15.56C95.1115 15.6667 95.4742 15.976 95.7515 16.488C96.0715 17.064 96.4768 17.5227 96.9675 17.864C97.4582 18.184 98.0768 18.376 98.8235 18.44C99.1648 18.4613 99.4848 18.44 99.7835 18.376C100.104 18.312 100.381 18.216 100.616 18.088C100.85 17.9387 101.032 17.768 101.16 17.576C101.288 17.3627 101.32 17.128 101.256 16.872C101.192 16.5307 100.936 16.2747 100.488 16.104C100.04 15.9333 99.5062 15.784 98.8875 15.656C98.2688 15.5067 97.6075 15.3573 96.9035 15.208C96.1995 15.0373 95.5382 14.8027 94.9195 14.504C94.3222 14.184 93.8208 13.7787 93.4155 13.288C93.0102 12.776 92.8075 12.104 92.8075 11.272Z" fill="white"/>
</svg>
