<svg width="146" height="70" viewBox="0 0 146 70" fill="none" xmlns="http://www.w3.org/2000/svg">
<rect width="146" height="70" rx="20" fill="white"/>
<path d="M22.42 16.44C22.42 15.736 22.66 15.224 23.14 14.904C23.652 14.552 24.212 14.376 24.82 14.376C25.428 14.376 25.972 14.552 26.452 14.904C26.964 15.224 27.22 15.736 27.22 16.44V40.2H37.108C37.908 40.2 38.5 40.456 38.884 40.968C39.3 41.448 39.508 41.992 39.508 42.6C39.508 43.208 39.3 43.768 38.884 44.28C38.5 44.76 37.908 45 37.108 45H27.22C26.324 45 25.572 44.952 24.964 44.856C24.356 44.728 23.86 44.504 23.476 44.184C23.092 43.864 22.82 43.416 22.66 42.84C22.5 42.264 22.42 41.528 22.42 40.632V16.44ZM49.2801 45C46.9441 45 44.9921 44.488 43.4241 43.464C41.8881 42.44 40.7361 41.16 39.9681 39.624C39.2001 38.088 38.8161 36.424 38.8161 34.632C38.8161 32.808 39.2001 31.128 39.9681 29.592C40.7361 28.056 41.8881 26.776 43.4241 25.752C44.9921 24.728 46.9441 24.216 49.2801 24.216C50.8161 24.216 52.2241 24.472 53.5041 24.984C54.7841 25.464 55.8721 26.168 56.7681 27.096C57.6961 27.992 58.4001 29.08 58.8801 30.36C59.3921 31.64 59.6481 33.048 59.6481 34.584C59.6481 36.152 59.3921 37.576 58.8801 38.856C58.4001 40.136 57.6961 41.24 56.7681 42.168C55.8721 43.064 54.7841 43.768 53.5041 44.28C52.2241 44.76 50.8161 45 49.2801 45ZM49.2801 29.016C48.0321 29.016 46.9761 29.304 46.1121 29.88C45.2801 30.424 44.6401 31.112 44.1921 31.944C43.7761 32.744 43.5681 33.64 43.5681 34.632C43.5681 35.592 43.7761 36.488 44.1921 37.32C44.6081 38.12 45.2321 38.808 46.0641 39.384C46.9281 39.928 48.0001 40.2 49.2801 40.2C50.9441 40.2 52.2881 39.736 53.3121 38.808C54.3361 37.848 54.8481 36.44 54.8481 34.584C54.8481 32.76 54.3361 31.384 53.3121 30.456C52.2881 29.496 50.9441 29.016 49.2801 29.016ZM72.1083 45C69.7723 45 67.8203 44.488 66.2523 43.464C64.7163 42.44 63.5643 41.16 62.7963 39.624C62.0283 38.088 61.6443 36.424 61.6443 34.632C61.6443 32.808 62.0283 31.128 62.7963 29.592C63.5643 28.056 64.7163 26.776 66.2523 25.752C67.8203 24.728 69.7723 24.216 72.1083 24.216C73.6443 24.216 75.0523 24.472 76.3323 24.984C77.6123 25.464 78.7003 26.168 79.5963 27.096C80.5243 27.992 81.2283 29.08 81.7083 30.36C82.2203 31.64 82.4763 33.048 82.4763 34.584V44.136C82.4763 45.704 82.2363 47.144 81.7563 48.456C81.3083 49.8 80.6363 50.952 79.7403 51.912C78.8763 52.904 77.8203 53.672 76.5723 54.216C75.3243 54.792 73.9163 55.08 72.3483 55.08C71.1323 55.08 69.9163 54.888 68.7003 54.504C67.4843 54.12 66.4603 53.528 65.6283 52.728C65.2123 52.344 64.9723 51.912 64.9083 51.432C64.8443 50.952 64.9083 50.488 65.1003 50.04C65.2923 49.624 65.5963 49.256 66.0123 48.936C66.4283 48.648 66.8923 48.504 67.4043 48.504C67.6603 48.504 67.9163 48.536 68.1723 48.6C68.4603 48.696 68.7483 48.84 69.0363 49.032C69.6123 49.416 70.1403 49.704 70.6203 49.896C71.1323 50.12 71.6603 50.232 72.2043 50.232C73.0683 50.232 73.8363 50.056 74.5083 49.704C75.1803 49.384 75.7403 48.936 76.1883 48.36C76.6683 47.816 77.0363 47.176 77.2923 46.44C77.5483 45.704 77.6763 44.92 77.6763 44.088V43.608C76.0763 44.536 74.2203 45 72.1083 45ZM72.1083 29.016C70.8603 29.016 69.8203 29.304 68.9883 29.88C68.1563 30.424 67.5323 31.112 67.1163 31.944C66.7003 32.744 66.4922 33.64 66.4922 34.632C66.4922 35.592 66.7003 36.488 67.1163 37.32C67.5323 38.12 68.1563 38.808 68.9883 39.384C69.8203 39.928 70.8603 40.2 72.1083 40.2C73.7723 40.2 75.1163 39.736 76.1403 38.808C77.1643 37.848 77.6763 36.44 77.6763 34.584C77.6763 32.76 77.1643 31.384 76.1403 30.456C75.1163 29.496 73.7723 29.016 72.1083 29.016ZM99.8579 21C99.0259 21 98.4019 20.744 97.9859 20.232C97.5699 19.72 97.3619 19.16 97.3619 18.552C97.3619 17.944 97.5699 17.384 97.9859 16.872C98.4019 16.36 99.0259 16.104 99.8579 16.104C100.69 16.104 101.314 16.36 101.73 16.872C102.146 17.384 102.354 17.944 102.354 18.552C102.354 19.16 102.146 19.72 101.73 20.232C101.314 20.744 100.69 21 99.8579 21ZM97.4579 26.28C97.4579 25.608 97.6979 25.096 98.1779 24.744C98.6899 24.392 99.2499 24.216 99.8579 24.216C100.466 24.216 101.01 24.392 101.49 24.744C102.002 25.096 102.258 25.608 102.258 26.28V42.936C102.258 43.608 102.002 44.12 101.49 44.472C101.01 44.824 100.466 45 99.8579 45C99.2499 45 98.6899 44.824 98.1779 44.472C97.6979 44.12 97.4579 43.608 97.4579 42.936V26.28ZM123.141 42.936C123.141 43.608 122.885 44.12 122.373 44.472C121.893 44.824 121.349 45 120.741 45C120.133 45 119.573 44.824 119.061 44.472C118.581 44.12 118.341 43.608 118.341 42.936V33.528C118.341 32.024 117.909 30.904 117.045 30.168C116.181 29.4 115.221 29.016 114.165 29.016C113.141 29.016 112.197 29.4 111.333 30.168C110.469 30.904 110.037 32.024 110.037 33.528V42.936C110.037 43.608 109.781 44.12 109.269 44.472C108.789 44.824 108.245 45 107.637 45C107.029 45 106.469 44.824 105.957 44.472C105.477 44.12 105.237 43.608 105.237 42.936V33.48C105.237 31.432 105.669 29.72 106.533 28.344C107.429 26.968 108.533 25.944 109.845 25.272C111.189 24.568 112.629 24.216 114.165 24.216C115.733 24.184 117.173 24.52 118.485 25.224C119.829 25.896 120.933 26.92 121.797 28.296C122.693 29.672 123.141 31.4 123.141 33.48V42.936Z" fill="url(#paint0_linear_137_113)"/>
<defs>
<linearGradient id="paint0_linear_137_113" x1="20.5" y1="35" x2="125.5" y2="35" gradientUnits="userSpaceOnUse">
<stop stop-color="#03BFB5"/>
<stop offset="1" stop-color="#9305F2"/>
</linearGradient>
</defs>
</svg>
