<svg width="107" height="49" viewBox="0 0 107 49" fill="none" xmlns="http://www.w3.org/2000/svg">
<rect width="107" height="49" rx="20" fill="white"/>
<path d="M15.44 10.58C15.44 10.052 15.62 9.668 15.98 9.428C16.364 9.164 16.784 9.032 17.24 9.032C17.696 9.032 18.104 9.164 18.464 9.428C18.848 9.668 19.04 10.052 19.04 10.58V28.4H26.456C27.056 28.4 27.5 28.592 27.788 28.976C28.1 29.336 28.256 29.744 28.256 30.2C28.256 30.656 28.1 31.076 27.788 31.46C27.5 31.82 27.056 32 26.456 32H19.04C18.368 32 17.804 31.964 17.348 31.892C16.892 31.796 16.52 31.628 16.232 31.388C15.944 31.148 15.74 30.812 15.62 30.38C15.5 29.948 15.44 29.396 15.44 28.724V10.58ZM35.5851 32C33.8331 32 32.3691 31.616 31.1931 30.848C30.0411 30.08 29.1771 29.12 28.6011 27.968C28.0251 26.816 27.7371 25.568 27.7371 24.224C27.7371 22.856 28.0251 21.596 28.6011 20.444C29.1771 19.292 30.0411 18.332 31.1931 17.564C32.3691 16.796 33.8331 16.412 35.5851 16.412C36.7371 16.412 37.7931 16.604 38.7531 16.988C39.7131 17.348 40.5291 17.876 41.2011 18.572C41.8971 19.244 42.4251 20.06 42.7851 21.02C43.1691 21.98 43.3611 23.036 43.3611 24.188C43.3611 25.364 43.1691 26.432 42.7851 27.392C42.4251 28.352 41.8971 29.18 41.2011 29.876C40.5291 30.548 39.7131 31.076 38.7531 31.46C37.7931 31.82 36.7371 32 35.5851 32ZM35.5851 20.012C34.6491 20.012 33.8571 20.228 33.2091 20.66C32.5851 21.068 32.1051 21.584 31.7691 22.208C31.4571 22.808 31.3011 23.48 31.3011 24.224C31.3011 24.944 31.4571 25.616 31.7691 26.24C32.0811 26.84 32.5491 27.356 33.1731 27.788C33.8211 28.196 34.6251 28.4 35.5851 28.4C36.8331 28.4 37.8411 28.052 38.6091 27.356C39.3771 26.636 39.7611 25.58 39.7611 24.188C39.7611 22.82 39.3771 21.788 38.6091 21.092C37.8411 20.372 36.8331 20.012 35.5851 20.012ZM52.7062 32C50.9542 32 49.4902 31.616 48.3142 30.848C47.1622 30.08 46.2982 29.12 45.7222 27.968C45.1462 26.816 44.8582 25.568 44.8582 24.224C44.8582 22.856 45.1462 21.596 45.7222 20.444C46.2982 19.292 47.1622 18.332 48.3142 17.564C49.4902 16.796 50.9542 16.412 52.7062 16.412C53.8582 16.412 54.9142 16.604 55.8742 16.988C56.8342 17.348 57.6502 17.876 58.3222 18.572C59.0182 19.244 59.5462 20.06 59.9062 21.02C60.2902 21.98 60.4822 23.036 60.4822 24.188V31.352C60.4822 32.528 60.3022 33.608 59.9422 34.592C59.6062 35.6 59.1022 36.464 58.4302 37.184C57.7822 37.928 56.9902 38.504 56.0542 38.912C55.1182 39.344 54.0622 39.56 52.8862 39.56C51.9742 39.56 51.0622 39.416 50.1502 39.128C49.2382 38.84 48.4702 38.396 47.8462 37.796C47.5342 37.508 47.3542 37.184 47.3062 36.824C47.2582 36.464 47.3062 36.116 47.4502 35.78C47.5942 35.468 47.8222 35.192 48.1342 34.952C48.4462 34.736 48.7942 34.628 49.1782 34.628C49.3702 34.628 49.5622 34.652 49.7542 34.7C49.9702 34.772 50.1862 34.88 50.4022 35.024C50.8342 35.312 51.2302 35.528 51.5902 35.672C51.9742 35.84 52.3702 35.924 52.7782 35.924C53.4262 35.924 54.0022 35.792 54.5062 35.528C55.0102 35.288 55.4302 34.952 55.7662 34.52C56.1262 34.112 56.4022 33.632 56.5942 33.08C56.7862 32.528 56.8822 31.94 56.8822 31.316V30.956C55.6822 31.652 54.2902 32 52.7062 32ZM52.7062 20.012C51.7702 20.012 50.9902 20.228 50.3662 20.66C49.7422 21.068 49.2742 21.584 48.9622 22.208C48.6502 22.808 48.4942 23.48 48.4942 24.224C48.4942 24.944 48.6502 25.616 48.9622 26.24C49.2742 26.84 49.7422 27.356 50.3662 27.788C50.9902 28.196 51.7702 28.4 52.7062 28.4C53.9542 28.4 54.9622 28.052 55.7302 27.356C56.4982 26.636 56.8822 25.58 56.8822 24.188C56.8822 22.82 56.4982 21.788 55.7302 21.092C54.9622 20.372 53.9542 20.012 52.7062 20.012ZM73.5184 14C72.8944 14 72.4264 13.808 72.1144 13.424C71.8024 13.04 71.6464 12.62 71.6464 12.164C71.6464 11.708 71.8024 11.288 72.1144 10.904C72.4264 10.52 72.8944 10.328 73.5184 10.328C74.1424 10.328 74.6104 10.52 74.9224 10.904C75.2344 11.288 75.3904 11.708 75.3904 12.164C75.3904 12.62 75.2344 13.04 74.9224 13.424C74.6104 13.808 74.1424 14 73.5184 14ZM71.7184 17.96C71.7184 17.456 71.8984 17.072 72.2584 16.808C72.6424 16.544 73.0624 16.412 73.5184 16.412C73.9744 16.412 74.3824 16.544 74.7424 16.808C75.1264 17.072 75.3184 17.456 75.3184 17.96V30.452C75.3184 30.956 75.1264 31.34 74.7424 31.604C74.3824 31.868 73.9744 32 73.5184 32C73.0624 32 72.6424 31.868 72.2584 31.604C71.8984 31.34 71.7184 30.956 71.7184 30.452V17.96ZM90.9807 30.452C90.9807 30.956 90.7887 31.34 90.4047 31.604C90.0447 31.868 89.6367 32 89.1807 32C88.7247 32 88.3047 31.868 87.9207 31.604C87.5607 31.34 87.3807 30.956 87.3807 30.452V23.396C87.3807 22.268 87.0567 21.428 86.4087 20.876C85.7607 20.3 85.0407 20.012 84.2487 20.012C83.4807 20.012 82.7727 20.3 82.1247 20.876C81.4767 21.428 81.1527 22.268 81.1527 23.396V30.452C81.1527 30.956 80.9607 31.34 80.5767 31.604C80.2167 31.868 79.8087 32 79.3527 32C78.8967 32 78.4767 31.868 78.0927 31.604C77.7327 31.34 77.5527 30.956 77.5527 30.452V23.36C77.5527 21.824 77.8767 20.54 78.5247 19.508C79.1967 18.476 80.0247 17.708 81.0087 17.204C82.0167 16.676 83.0967 16.412 84.2487 16.412C85.4247 16.388 86.5047 16.64 87.4887 17.168C88.4967 17.672 89.3247 18.44 89.9727 19.472C90.6447 20.504 90.9807 21.8 90.9807 23.36V30.452Z" fill="url(#paint0_linear_137_200)"/>
<defs>
<linearGradient id="paint0_linear_137_200" x1="14" y1="24.5" x2="93" y2="24.5" gradientUnits="userSpaceOnUse">
<stop stop-color="#03BFB5"/>
<stop offset="1" stop-color="#9305F2"/>
</linearGradient>
</defs>
</svg>
