<svg width="51" height="37" viewBox="0 0 51 37" fill="none" xmlns="http://www.w3.org/2000/svg">
<path d="M36.9458 20.5593C38.7259 20.5593 40.169 19.1163 40.169 17.3362C40.169 15.5561 38.7259 14.113 36.9458 14.113C35.1657 14.113 33.7227 15.5561 33.7227 17.3362C33.7227 19.1163 35.1657 20.5593 36.9458 20.5593Z" fill="#6A0DAD"/>
<path d="M15.6119 20.5593C17.392 20.5593 18.835 19.1163 18.835 17.3362C18.835 15.5561 17.392 14.113 15.6119 14.113C13.8318 14.113 12.3887 15.5561 12.3887 17.3362C12.3887 19.1163 13.8318 20.5593 15.6119 20.5593Z" fill="#6A0DAD"/>
<path d="M28.9112 5.94857C28.9112 6.01804 28.9112 6.0875 28.9112 6.15697C28.9068 6.25154 28.8975 6.34583 28.8834 6.43946L28.8556 6.60154C28.8556 6.63395 28.8556 6.66637 28.8556 6.69879C28.8535 6.7219 28.8535 6.74514 28.8556 6.76825V6.80067C28.7853 7.08077 28.6778 7.3502 28.5361 7.60183C28.2414 8.12438 27.8311 8.57265 27.3367 8.91239C27.0218 9.13434 26.6661 9.29174 26.2901 9.37549C26.1202 9.4163 25.9461 9.43651 25.7714 9.4357C25.4944 9.43826 25.2197 9.38366 24.9648 9.27529C24.7098 9.16692 24.4799 9.00713 24.2895 8.80588C23.3937 7.95922 22.337 7.30097 21.1821 6.87013C19.9149 6.40357 18.5729 6.17285 17.2226 6.18938C15.7097 6.15461 14.2089 6.46763 12.8359 7.10432C11.463 7.74101 10.2546 8.68438 9.30369 9.86174C8.37397 11.0182 7.67726 12.344 7.25214 13.7657C6.76424 15.2996 6.50977 16.8982 6.49729 18.5078C6.49005 20.1197 6.72099 21.7239 7.18266 23.2684C7.60358 24.7002 8.30053 26.0359 9.23421 27.2001C10.1506 28.3225 11.2971 29.2352 12.5963 29.8768C14.0155 30.5639 15.5767 30.9066 17.1532 30.8771C18.4948 30.8938 19.828 30.6614 21.0849 30.1917C21.2932 30.113 21.4924 30.025 21.6915 29.9324C21.5984 30.3081 21.5517 30.6938 21.5526 31.0809C21.5537 31.5457 21.6486 32.0056 21.8316 32.4329C22.0146 32.8602 22.282 33.2462 22.6177 33.5677C23.2154 34.1494 23.8666 34.6735 24.5627 35.133C24.1093 35.3389 23.6456 35.5213 23.1734 35.6794C21.3104 36.3221 19.3554 36.6583 17.3847 36.6751C14.9903 36.7143 12.6172 36.2192 10.4383 35.2256C8.44256 34.2969 6.66559 32.9571 5.22377 31.2939C3.77341 29.5924 2.66209 27.629 1.9497 25.5098C1.17956 23.256 0.791393 20.8895 0.801225 18.5078C0.785833 16.134 1.17096 13.7746 1.94043 11.5289C2.65767 9.42022 3.76868 7.46687 5.2145 5.7726C6.65506 4.10803 8.43234 2.76797 10.429 1.8409C12.6075 0.845736 14.9806 0.348969 17.3754 0.386772C19.3459 0.405805 21.3005 0.741998 23.1642 1.38244C24.0878 1.6912 24.9783 2.09145 25.8223 2.57723C25.989 2.67448 26.1465 2.77173 26.2854 2.87361L26.4337 2.97086L26.6652 3.12831L26.8967 3.29039L27.119 3.45711C27.2765 3.57751 27.4293 3.70255 27.5821 3.82759L27.7674 3.98967L27.9665 4.17028C28.0359 4.23511 28.1054 4.29532 28.1703 4.36478C28.3968 4.56302 28.5796 4.80617 28.7071 5.07882C28.8347 5.35146 28.9042 5.64765 28.9112 5.94857Z" fill="#6A0DAD"/>
<path d="M50.9463 18.4614C50.9605 20.8457 50.5755 23.2156 49.8071 25.4727C49.095 27.5931 47.9819 29.5567 46.5284 31.2568C45.0875 32.9211 43.3103 34.2611 41.3139 35.1885C39.1351 36.1825 36.7619 36.6777 34.3674 36.638C32.3982 36.6212 30.4448 36.285 28.5833 35.6423C28.1202 35.4942 27.6895 35.3228 27.2681 35.1376C26.807 34.9333 26.3572 34.7045 25.9205 34.4522C25.0563 33.9515 24.2568 33.3465 23.5402 32.6507C23.326 32.45 23.1552 32.2076 23.0381 31.9384C22.921 31.6693 22.8602 31.379 22.8594 31.0855C22.8556 30.5067 23.0024 29.937 23.2855 29.4322C23.573 28.9134 23.9832 28.473 24.4803 28.1494C24.7911 27.9324 25.1398 27.7753 25.5084 27.6863C25.6865 27.648 25.868 27.6278 26.0501 27.6261C26.5989 27.6189 27.1295 27.8228 27.5321 28.1957C28.2722 28.8793 29.1144 29.4433 30.0282 29.8675C30.2366 29.9601 30.4496 30.0528 30.6626 30.1361C31.9197 30.6051 33.2527 30.8375 34.5943 30.8215C36.1083 30.855 37.6097 30.541 38.9833 29.9036C40.3569 29.2662 41.5661 28.3223 42.5179 27.1445C43.4516 25.9803 44.1485 24.6446 44.5695 23.2128C45.0299 21.6682 45.2593 20.0639 45.2502 18.4522C45.2603 16.851 45.0309 15.2573 44.5695 13.7239C44.1443 12.3023 43.4476 10.9765 42.5179 9.82004C41.5666 8.64206 40.3574 7.69831 38.9836 7.06159C37.6098 6.42488 36.1081 6.1122 34.5943 6.14768C33.244 6.13157 31.9022 6.36227 30.6348 6.82843C30.4403 6.90253 30.2505 6.98126 30.0652 7.06925C30.1546 6.69924 30.1997 6.31993 30.1995 5.93929C30.1984 5.47443 30.1035 5.01459 29.9205 4.58728C29.7375 4.15997 29.4701 3.77399 29.1344 3.45246C28.5364 2.87246 27.8852 2.34994 27.1894 1.89182C27.6525 1.69268 28.1156 1.50745 28.5787 1.34536C30.4399 0.701319 32.3933 0.363498 34.3628 0.345072C36.7576 0.306802 39.1308 0.803589 41.3092 1.7992C43.3012 2.72538 45.0738 4.0639 46.5098 5.72626C47.9591 7.41885 49.0719 9.3726 49.7885 11.4826C50.5643 13.7272 50.9557 16.0866 50.9463 18.4614Z" fill="#6A0DAD"/>
</svg>
