<svg width="24" height="24" viewBox="0 0 24 24" fill="none" xmlns="http://www.w3.org/2000/svg">
<g clip-path="url(#clip0_417_1948)">
<path d="M12.85 15.4003L7.75 16.3183L8.6 11.1503L18.341 1.44329C18.499 1.28395 18.6871 1.15748 18.8942 1.07117C19.1014 0.984865 19.3236 0.94043 19.548 0.94043C19.7724 0.94043 19.9946 0.984865 20.2018 1.07117C20.4089 1.15748 20.597 1.28395 20.755 1.44329L22.557 3.24529C22.7163 3.40332 22.8428 3.59135 22.9291 3.79851C23.0154 4.00567 23.0599 4.22787 23.0599 4.45229C23.0599 4.67671 23.0154 4.89891 22.9291 5.10607C22.8428 5.31323 22.7163 5.50125 22.557 5.65929L12.85 15.4003Z" stroke="#9305F2" stroke-width="2" stroke-linecap="round" stroke-linejoin="round"/>
<path d="M20.4992 16.2505V21.3505C20.4992 21.8014 20.3201 22.2338 20.0013 22.5526C19.6825 22.8714 19.2501 23.0505 18.7992 23.0505H2.64922C2.19835 23.0505 1.76595 22.8714 1.44714 22.5526C1.12833 22.2338 0.949219 21.8014 0.949219 21.3505V5.20049C0.949219 4.74962 1.12833 4.31722 1.44714 3.99841C1.76595 3.67959 2.19835 3.50049 2.64922 3.50049H7.74922" stroke="#9305F2" stroke-width="2" stroke-linecap="round" stroke-linejoin="round"/>
</g>
<defs>
<clipPath id="clip0_417_1948">
<rect width="23.8" height="23.8" fill="white" transform="translate(0.0996094 0.100098)"/>
</clipPath>
</defs>
</svg>
