<svg width="201" height="36" viewBox="0 0 201 36" fill="none" xmlns="http://www.w3.org/2000/svg">
<path d="M64.288 34.0336C62.652 34.0589 61.0288 33.741 59.5232 33.1005C58.1663 32.5246 56.9409 31.6785 55.9215 30.6137C54.9022 29.549 54.1103 28.2878 53.5941 26.9071C52.5259 24.0174 52.5259 20.8411 53.5941 17.9514C54.1103 16.5857 54.8936 15.3364 55.898 14.2767C56.9269 13.2054 58.1593 12.3505 59.5232 11.7622C61.0294 11.1235 62.6521 10.8057 64.288 10.829C65.8002 10.7942 67.2968 11.1407 68.6399 11.8365C69.8394 12.4715 70.8754 13.376 71.6664 14.479C72.4496 15.58 72.9965 16.8311 73.2725 18.1538C73.5673 19.5134 73.5757 20.9196 73.2973 22.2827C73.2407 22.5169 73.1547 22.7431 73.0413 22.9557C72.8681 23.3357 72.6112 23.6716 72.2898 23.9384C71.9416 24.2234 71.5007 24.3703 71.0512 24.3513H58.1565C58.3425 25.0633 58.6498 25.7379 59.0649 26.3456C59.4372 26.8869 59.9011 27.3591 60.4357 27.7411C60.9508 28.1024 61.5192 28.381 62.1203 28.5669C62.6968 28.7527 63.2983 28.8488 63.904 28.8518C64.4264 28.8439 64.9471 28.7914 65.4606 28.6949C66.2402 28.4842 66.9516 28.0744 67.525 27.5058C67.9804 27.0959 68.5645 26.8579 69.1766 26.8328C69.7017 26.8333 70.2122 27.0059 70.63 27.3241C71.065 27.6367 71.412 28.0562 71.6375 28.5421C71.8595 29.0189 71.9493 29.5465 71.8976 30.0698C71.8407 30.611 71.5934 31.1144 71.1998 31.4902C70.2657 32.3412 69.1627 32.9855 67.9627 33.3812C66.7822 33.8 65.5405 34.0204 64.288 34.0336ZM67.9132 19.1695C67.7666 18.6019 67.5021 18.0715 67.1369 17.6129C66.8253 17.2322 66.4578 16.9008 66.0469 16.6302C65.6985 16.4041 65.3147 16.238 64.9114 16.1388C64.5882 16.0602 64.2573 16.0172 63.9246 16.0109C62.901 16.024 61.8967 16.2907 61.0014 16.7871C60.0013 17.3183 59.1949 18.1522 58.6974 19.1695H67.9132Z" fill="#6A0DAD"/>
<path d="M83.7278 23.41C83.6974 24.4507 83.8284 25.4897 84.1159 26.4902C84.3122 27.1556 84.6582 27.7672 85.1275 28.2781C85.5154 28.6765 86.01 28.9547 86.552 29.0791C87.0869 29.2018 87.6341 29.2627 88.1829 29.2607C88.5038 29.2447 88.8235 29.3101 89.1123 29.4508C89.4011 29.5916 89.6495 29.8032 89.8345 30.0659C90.205 30.5876 90.404 31.2117 90.404 31.8516C90.404 32.4916 90.205 33.1157 89.8345 33.6374C89.6485 33.8988 89.3997 34.1091 89.1111 34.2491C88.8225 34.3891 88.5033 34.4542 88.1829 34.4384C86.9801 34.4387 85.7842 34.2563 84.6362 33.8975C83.484 33.5375 82.4301 32.9174 81.556 32.0849C80.5867 31.13 79.8433 29.9704 79.3801 28.6909C78.7821 26.9965 78.5021 25.2062 78.5543 23.41V16.4198H76.2256C75.905 16.4367 75.5854 16.3721 75.2966 16.232C75.0077 16.092 74.7592 15.881 74.574 15.6188C74.2031 15.0964 74.0039 14.4716 74.0039 13.831C74.0039 13.1903 74.2031 12.5655 74.574 12.0431C74.7592 11.7809 75.0077 11.5699 75.2966 11.4299C75.5854 11.2898 75.905 11.2252 76.2256 11.2421H78.5543V6.21721C78.5405 5.89447 78.609 5.57352 78.7535 5.28458C78.8979 4.99565 79.1136 4.74824 79.3801 4.56564C79.9018 4.19514 80.5259 3.99609 81.1658 3.99609C81.8057 3.99609 82.4298 4.19514 82.9516 4.56564C83.2129 4.75162 83.4233 5.00038 83.5633 5.289C83.7033 5.57762 83.7684 5.89682 83.7526 6.21721V11.2421H87.1218C87.4422 11.2263 87.7614 11.2914 88.05 11.4314C88.3386 11.5714 88.5874 11.7818 88.7734 12.0431C89.1442 12.5655 89.3434 13.1903 89.3434 13.831C89.3434 14.4716 89.1442 15.0964 88.7734 15.6188C88.5874 15.8801 88.3386 16.0905 88.05 16.2305C87.7614 16.3704 87.4422 16.4356 87.1218 16.4198H83.7526L83.7278 23.41Z" fill="#6A0DAD"/>
<path d="M101.903 34.0336C100.267 34.0588 98.6441 33.741 97.1385 33.1004C95.7751 32.5152 94.5436 31.6615 93.5174 30.59C92.5101 29.531 91.7265 28.2798 91.2134 26.9112C90.1398 24.0225 90.1398 20.8442 91.2134 17.9555C91.7266 16.5882 92.5102 15.3384 93.5174 14.2808C94.5445 13.2093 95.7757 12.3544 97.1385 11.7663C98.645 11.129 100.268 10.8126 101.903 10.8373C103.169 10.8448 104.425 11.0624 105.619 11.4814C106.819 11.8787 107.921 12.5229 108.856 13.3724C109.251 13.7493 109.498 14.2543 109.554 14.7969C109.608 15.3229 109.509 15.8532 109.269 16.3246C109.026 16.806 108.681 17.2287 108.258 17.5633C107.86 17.8973 107.357 18.0801 106.837 18.0794C106.22 18.0795 105.627 17.838 105.186 17.4064C104.36 16.6467 103.658 16.2338 103.088 16.1677C102.581 16.1044 102.071 16.0699 101.561 16.0645C100.845 16.0705 100.137 16.2019 99.4671 16.4526C98.7584 16.7114 98.1075 17.107 97.5513 17.617C96.9566 18.1722 96.4804 18.8422 96.1516 19.5865C95.7671 20.4858 95.5811 21.4576 95.6066 22.4354C95.5821 23.4265 95.7679 24.4116 96.1516 25.3257C96.476 26.0797 96.9525 26.7586 97.5513 27.3199C98.1075 27.8299 98.7584 28.2255 99.4671 28.4843C100.137 28.735 100.845 28.8664 101.561 28.8724C102.071 28.8691 102.582 28.8346 103.088 28.7692C103.658 28.699 104.36 28.2861 105.186 27.5305C105.621 27.0833 106.213 26.8228 106.837 26.8038C107.357 26.805 107.86 26.9892 108.258 27.3241C108.682 27.6576 109.027 28.0805 109.269 28.5627C109.509 29.0341 109.608 29.5644 109.554 30.0905C109.497 30.6316 109.25 31.135 108.856 31.5108C107.922 32.3618 106.819 33.0061 105.619 33.4018C104.424 33.8184 103.168 34.0319 101.903 34.0336Z" fill="#6A0DAD"/>
<path d="M121.163 33.6621C118.644 33.6621 116.548 33.1116 114.875 32.0105C113.277 30.9929 111.98 29.5676 111.117 27.8816C110.302 26.1935 109.879 24.3432 109.879 22.4686C109.879 20.594 110.302 18.7436 111.117 17.0556C111.98 15.3696 113.277 13.9443 114.875 12.9266C116.546 11.8256 118.642 11.2751 121.163 11.2751C122.713 11.2593 124.253 11.5308 125.705 12.0761C127.037 12.5724 128.247 13.3496 129.252 14.3548C130.257 15.3601 131.034 16.5698 131.531 17.902C132.076 19.3536 132.347 20.8934 132.332 22.4438C132.352 24.0161 132.08 25.5785 131.531 27.0517C131.034 28.3838 130.257 29.5936 129.252 30.5988C128.247 31.6041 127.037 32.3813 125.705 32.8776C124.252 33.4172 122.712 33.6832 121.163 33.6621ZM121.163 16.4197C119.968 16.3781 118.788 16.6929 117.773 17.3239C116.91 17.8687 116.201 18.6267 115.716 19.5249C115.231 20.4232 114.985 21.4313 115.003 22.4521C114.992 23.4555 115.223 24.4467 115.676 25.3423C116.158 26.2529 116.869 27.0216 117.74 27.5719C118.773 28.2068 119.972 28.5215 121.184 28.4762C122.978 28.4762 124.429 27.9669 125.536 26.9485C126.642 25.93 127.193 24.4161 127.187 22.4066C127.187 20.4385 126.637 18.9452 125.536 17.9268C124.435 16.9083 122.977 16.4059 121.163 16.4197Z" fill="#6A0DAD"/>
<path d="M135.458 2.85198C135.441 2.53143 135.505 2.21183 135.645 1.92301C135.786 1.63419 135.997 1.38558 136.259 1.20041C136.781 0.829902 137.405 0.630859 138.044 0.630859C138.684 0.630859 139.308 0.829902 139.83 1.20041C140.097 1.383 140.312 1.63042 140.457 1.91935C140.601 2.20829 140.67 2.52923 140.656 2.85198V31.4365C140.67 31.7593 140.601 32.0802 140.457 32.3692C140.312 32.6581 140.097 32.9055 139.83 33.0881C139.308 33.4586 138.684 33.6576 138.044 33.6576C137.405 33.6576 136.781 33.4586 136.259 33.0881C135.997 32.9029 135.786 32.6543 135.645 32.3655C135.505 32.0767 135.441 31.7571 135.458 31.4365V2.85198Z" fill="#6A0DAD"/>
<path d="M143.741 2.85202C143.725 2.53163 143.79 2.21243 143.93 1.92381C144.07 1.63519 144.28 1.38643 144.542 1.20045C145.064 0.829594 145.689 0.630371 146.329 0.630371C146.97 0.630371 147.595 0.829594 148.117 1.20045C148.379 1.38643 148.589 1.63519 148.729 1.92381C148.869 2.21243 148.934 2.53163 148.918 2.85202V31.4366C148.934 31.757 148.869 32.0762 148.729 32.3648C148.589 32.6534 148.379 32.9022 148.117 33.0881C147.595 33.459 146.97 33.6582 146.329 33.6582C145.689 33.6582 145.064 33.459 144.542 33.0881C144.28 32.9022 144.07 32.6534 143.93 32.3648C143.79 32.0762 143.725 31.757 143.741 31.4366V2.85202Z" fill="#6A0DAD"/>
<path d="M163.382 33.662C160.863 33.662 158.766 33.1115 157.09 32.0105C155.494 30.9915 154.199 29.5664 153.336 27.8815C152.519 26.1942 152.094 24.3436 152.094 22.4685C152.094 20.5935 152.519 18.7428 153.336 17.0555C154.199 15.3706 155.494 13.9456 157.09 12.9266C158.766 11.8255 160.863 11.275 163.382 11.275C164.932 11.26 166.472 11.5315 167.924 12.076C169.252 12.5804 170.46 13.3567 171.471 14.3552C172.47 15.3642 173.245 16.5728 173.746 17.9019C174.301 19.3514 174.581 20.8916 174.571 22.4437V31.4531C174.585 31.7758 174.517 32.0968 174.372 32.3857C174.228 32.6746 174.012 32.922 173.746 33.1046C173.227 33.4794 172.602 33.679 171.962 33.6744C171.428 33.6797 170.901 33.546 170.434 33.2863C169.977 33.0364 169.633 32.6192 169.476 32.1219C167.608 33.1603 165.503 33.6953 163.365 33.6744L163.382 33.662ZM163.382 16.4196C162.187 16.3781 161.007 16.6928 159.992 17.3239C159.12 17.8664 158.403 18.626 157.911 19.5284C157.42 20.4308 157.171 21.4453 157.189 22.4726C157.178 23.476 157.409 24.4672 157.862 25.3629C158.335 26.2727 159.04 27.0417 159.905 27.5925C160.938 28.2283 162.137 28.5431 163.349 28.4967C165.144 28.4967 166.593 27.9875 167.697 26.9691C168.801 25.9506 169.351 24.4366 169.348 22.4272C169.348 20.4591 168.798 18.9658 167.697 17.9473C166.596 16.9289 165.157 16.4196 163.382 16.4196Z" fill="#6A0DAD"/>
<path d="M188.841 33.6621C186.704 33.683 184.598 33.148 182.73 32.1096C182.651 32.383 182.513 32.6356 182.325 32.8496C182.137 33.0637 181.905 33.2339 181.644 33.3483C181.112 33.6005 180.522 33.7073 179.935 33.658C179.355 33.6083 178.805 33.382 178.358 33.0097C178.128 32.8237 177.945 32.5864 177.823 32.3168C177.701 32.0472 177.644 31.7529 177.656 31.4573V2.92639C177.643 2.60377 177.712 2.28309 177.856 1.99429C178.001 1.70549 178.216 1.45797 178.482 1.27482C179.004 0.906619 179.628 0.708984 180.268 0.708984C180.907 0.708984 181.531 0.906619 182.053 1.27482C182.314 1.46107 182.524 1.70987 182.664 1.99843C182.804 2.28699 182.87 2.60606 182.854 2.92639V12.7656C184.686 11.7357 186.761 11.2167 188.862 11.2627C191.38 11.2627 193.478 11.8132 195.154 12.9143C196.749 13.9333 198.045 15.3583 198.908 17.0432C199.725 18.7305 200.15 20.5812 200.15 22.4562C200.15 24.3312 199.725 26.1819 198.908 27.8692C198.045 29.5541 196.749 30.9792 195.154 31.9982C193.464 33.1075 191.36 33.6621 188.841 33.6621ZM188.841 16.4197C187.044 16.4197 185.595 16.9289 184.493 17.9474C183.392 18.9659 182.842 20.4592 182.842 22.4273C182.842 24.4312 183.392 25.9452 184.493 26.9691C185.595 27.9931 187.044 28.5023 188.841 28.4968C190.053 28.5421 191.251 28.2275 192.285 27.5926C193.157 27.0436 193.869 26.2746 194.349 25.363C194.802 24.4673 195.032 23.4761 195.022 22.4727C195.032 21.4664 194.792 20.4734 194.324 19.5825C193.832 18.6794 193.123 17.9131 192.26 17.3529C191.24 16.7058 190.049 16.3807 188.841 16.4197Z" fill="#6A0DAD"/>
<path d="M32.2272 20.9984C33.8143 20.9984 35.101 19.7118 35.101 18.1247C35.101 16.5376 33.8143 15.251 32.2272 15.251C30.6401 15.251 29.3535 16.5376 29.3535 18.1247C29.3535 19.7118 30.6401 20.9984 32.2272 20.9984Z" fill="#6A0DAD"/>
<path d="M13.2058 20.9984C14.7929 20.9984 16.0795 19.7118 16.0795 18.1247C16.0795 16.5376 14.7929 15.251 13.2058 15.251C11.6187 15.251 10.332 16.5376 10.332 18.1247C10.332 19.7118 11.6187 20.9984 13.2058 20.9984Z" fill="#6A0DAD"/>
<path d="M25.0629 7.97186C25.0629 8.0338 25.0629 8.09573 25.0629 8.15766C25.059 8.24199 25.0507 8.32605 25.0381 8.40953L25.0134 8.55404C25.0134 8.58294 25.0134 8.61184 25.0134 8.64075C25.0115 8.66135 25.0115 8.68208 25.0134 8.70268V8.73158C24.9507 8.98131 24.8548 9.22154 24.7285 9.44589C24.4657 9.91178 24.0999 10.3115 23.6591 10.6144C23.3784 10.8123 23.0612 10.9526 22.726 11.0273C22.5745 11.0637 22.4193 11.0817 22.2635 11.0809C22.0165 11.0832 21.7717 11.0345 21.5443 10.9379C21.317 10.8413 21.1121 10.6988 20.9423 10.5194C20.1436 9.76453 19.2015 9.17764 18.1718 8.79352C17.0419 8.37753 15.8455 8.17182 14.6415 8.18656C13.2926 8.15557 11.9545 8.43465 10.7304 9.00232C9.50631 9.56998 8.42888 10.4111 7.58109 11.4608C6.75217 12.4919 6.13099 13.674 5.75196 14.9415C5.31695 16.3091 5.09007 17.7344 5.07894 19.1695C5.07248 20.6067 5.27839 22.037 5.69001 23.414C6.0653 24.6906 6.68669 25.8815 7.51915 26.9195C8.33622 27.9202 9.35841 28.734 10.5167 29.306C11.7821 29.9186 13.174 30.2242 14.5796 30.1979C15.7758 30.2128 16.9644 30.0056 18.085 29.5868C18.2708 29.5166 18.4484 29.4382 18.626 29.3556C18.5429 29.6905 18.5013 30.0344 18.5021 30.3795C18.503 30.794 18.5877 31.204 18.7509 31.585C18.914 31.966 19.1524 32.3101 19.4517 32.5968C19.9846 33.1155 20.5652 33.5827 21.1859 33.9923C20.7816 34.176 20.3682 34.3386 19.9472 34.4796C18.2861 35.0525 16.5431 35.3523 14.786 35.3673C12.6512 35.4023 10.5354 34.9608 8.59266 34.0749C6.81332 33.247 5.22899 32.0524 3.94349 30.5695C2.65036 29.0524 1.65952 27.3019 1.02436 25.4124C0.33771 23.403 -0.00837034 21.293 0.000395651 19.1695C-0.0133278 17.0531 0.330045 14.9494 1.01609 12.9472C1.65558 11.0671 2.64615 9.32556 3.93522 7.81496C5.21961 6.33085 6.80421 5.13607 8.58439 4.3095C10.5268 3.42223 12.6426 2.97931 14.7778 3.01302C16.5347 3.02999 18.2773 3.32974 19.9389 3.90074C20.7624 4.17603 21.5564 4.53289 22.3089 4.96601C22.4576 5.05271 22.5979 5.13942 22.7218 5.23026L22.854 5.31696L23.0604 5.45734L23.2669 5.60186L23.465 5.7505C23.6054 5.85785 23.7417 5.96933 23.8779 6.08081L24.0431 6.22532L24.2206 6.38635C24.2826 6.44416 24.3445 6.49784 24.4023 6.55977C24.6043 6.73652 24.7673 6.95331 24.881 7.1964C24.9947 7.43949 25.0567 7.70356 25.0629 7.97186Z" fill="#6A0DAD"/>
<path d="M44.708 19.1283C44.7207 21.2541 44.3774 23.3671 43.6923 25.3795C43.0574 27.27 42.0649 29.0208 40.769 30.5365C39.4844 32.0204 37.8998 33.2151 36.1198 34.042C34.1772 34.9282 32.0613 35.3698 29.9264 35.3343C28.1707 35.3194 26.4291 35.0196 24.7694 34.4466C24.3565 34.3145 23.9725 34.1617 23.5968 33.9966C23.1857 33.8145 22.7846 33.6105 22.3953 33.3855C21.6247 32.9391 20.912 32.3997 20.273 31.7793C20.0821 31.6004 19.9297 31.3842 19.8254 31.1443C19.721 30.9043 19.6668 30.6455 19.6661 30.3838C19.6626 29.8678 19.7935 29.3598 20.0459 28.9097C20.3022 28.4472 20.668 28.0545 21.1112 27.766C21.3884 27.5725 21.6992 27.4324 22.0278 27.3531C22.1866 27.319 22.3484 27.301 22.5109 27.2995C23.0001 27.293 23.4732 27.4748 23.8322 27.8073C24.492 28.4168 25.2429 28.9196 26.0576 29.2979C26.2434 29.3804 26.4334 29.463 26.6233 29.5373C27.7441 29.9555 28.9326 30.1626 30.1288 30.1484C31.4786 30.1783 32.8172 29.8983 34.0419 29.33C35.2666 28.7617 36.3447 27.9201 37.1933 26.87C38.0258 25.832 38.6472 24.6412 39.0225 23.3646C39.433 21.9874 39.6375 20.5571 39.6294 19.1201C39.6384 17.6924 39.4339 16.2715 39.0225 14.9044C38.6434 13.6369 38.0223 12.4549 37.1933 11.4237C36.3451 10.3735 35.267 9.53202 34.0422 8.96433C32.8173 8.39664 31.4784 8.11786 30.1288 8.1495C28.9249 8.13513 27.7285 8.34082 26.5985 8.75645C26.4251 8.82251 26.2558 8.8927 26.0907 8.97115C26.1703 8.64126 26.2105 8.30307 26.2104 7.9637C26.2094 7.54924 26.1248 7.13924 25.9616 6.75826C25.7985 6.37727 25.5601 6.03314 25.2607 5.74646C24.7276 5.22934 24.147 4.76347 23.5266 4.35501C23.9395 4.17747 24.3524 4.01231 24.7653 3.8678C26.4248 3.29358 28.1664 2.99238 29.9223 2.97595C32.0575 2.94183 34.1734 3.38476 36.1157 4.27244C37.8917 5.09821 39.4721 6.29162 40.7525 7.77376C42.0447 9.28286 43.0368 11.0248 43.6757 12.906C44.3674 14.9073 44.7164 17.0109 44.708 19.1283Z" fill="#6A0DAD"/>
</svg>
