<svg width="153" height="57" viewBox="0 0 153 57" fill="none" xmlns="http://www.w3.org/2000/svg">
<g filter="url(#filter0_d_384_2631)">
<rect x="4" width="145" height="49" rx="20" fill="white"/>
<path d="M24.96 28.968V15.72C24.96 15.368 25.08 15.112 25.32 14.952C25.576 14.776 25.856 14.688 26.16 14.688C26.464 14.688 26.736 14.776 26.976 14.952C27.232 15.112 27.36 15.368 27.36 15.72V27.504C27.952 27.408 28.504 27.232 29.016 26.976C29.528 26.704 29.968 26.352 30.336 25.92C30.704 25.488 30.992 24.96 31.2 24.336C31.424 23.712 31.536 22.984 31.536 22.152V15.72C31.536 15.368 31.656 15.112 31.896 14.952C32.152 14.776 32.432 14.688 32.736 14.688C33.04 14.688 33.312 14.776 33.552 14.952C33.808 15.112 33.936 15.368 33.936 15.72V22.152C33.936 23.496 33.72 24.664 33.288 25.656C32.872 26.632 32.304 27.448 31.584 28.104C30.88 28.744 30.056 29.224 29.112 29.544C28.184 29.848 27.2 30 26.16 30C26.064 30 25.992 29.992 25.944 29.976C25.672 29.944 25.44 29.848 25.248 29.688C25.056 29.512 24.96 29.272 24.96 28.968ZM36.8664 18C36.4504 18 36.1384 17.872 35.9304 17.616C35.7224 17.36 35.6184 17.08 35.6184 16.776C35.6184 16.472 35.7224 16.192 35.9304 15.936C36.1384 15.68 36.4504 15.552 36.8664 15.552C37.2824 15.552 37.5944 15.68 37.8024 15.936C38.0104 16.192 38.1144 16.472 38.1144 16.776C38.1144 17.08 38.0104 17.36 37.8024 17.616C37.5944 17.872 37.2824 18 36.8664 18ZM35.6664 20.64C35.6664 20.304 35.7864 20.048 36.0264 19.872C36.2824 19.696 36.5624 19.608 36.8664 19.608C37.1704 19.608 37.4424 19.696 37.6824 19.872C37.9384 20.048 38.0664 20.304 38.0664 20.64V28.968C38.0664 29.304 37.9384 29.56 37.6824 29.736C37.4424 29.912 37.1704 30 36.8664 30C36.5624 30 36.2824 29.912 36.0264 29.736C35.7864 29.56 35.6664 29.304 35.6664 28.968V20.64ZM44.4152 30.168C43.5992 30.168 42.8632 30.024 42.2072 29.736C41.5512 29.448 40.9912 29.064 40.5272 28.584C40.0632 28.088 39.7032 27.52 39.4472 26.88C39.2072 26.224 39.0872 25.528 39.0872 24.792C39.0872 24.056 39.2072 23.368 39.4472 22.728C39.7032 22.072 40.0632 21.504 40.5272 21.024C40.9912 20.528 41.5512 20.136 42.2072 19.848C42.8632 19.56 43.5992 19.416 44.4152 19.416C45.1832 19.416 45.8552 19.576 46.4312 19.896C47.0072 20.2 47.4712 20.608 47.8232 21.12C48.1912 21.616 48.4392 22.184 48.5672 22.824C48.7112 23.448 48.7192 24.08 48.5912 24.72C48.5752 24.8 48.5352 24.904 48.4712 25.032C48.3912 25.208 48.2712 25.36 48.1112 25.488C47.9672 25.616 47.7832 25.68 47.5592 25.68H41.5832C41.6792 26.032 41.8152 26.344 41.9912 26.616C42.1832 26.872 42.3992 27.088 42.6392 27.264C42.8792 27.424 43.1352 27.552 43.4072 27.648C43.6952 27.728 43.9752 27.768 44.2472 27.768C44.4552 27.768 44.6952 27.744 44.9672 27.696C45.2392 27.648 45.5592 27.464 45.9272 27.144C46.1832 26.936 46.4392 26.832 46.6952 26.832C46.9352 26.832 47.1592 26.912 47.3672 27.072C47.5752 27.216 47.7272 27.4 47.8232 27.624C47.9352 27.848 47.9752 28.088 47.9432 28.344C47.9272 28.584 47.8232 28.8 47.6312 28.992C47.2152 29.376 46.7112 29.672 46.1192 29.88C45.5432 30.072 44.9752 30.168 44.4152 30.168ZM46.0952 23.28C46.0152 22.992 45.8952 22.752 45.7352 22.56C45.5752 22.368 45.4072 22.216 45.2312 22.104C45.0552 21.992 44.8792 21.92 44.7032 21.888C44.5272 21.84 44.3752 21.816 44.2472 21.816C43.7992 21.816 43.3432 21.936 42.8792 22.176C42.4312 22.416 42.0792 22.784 41.8232 23.28H46.0952ZM49.6575 20.64C49.6575 20.288 49.7775 20.032 50.0175 19.872C50.2735 19.696 50.5535 19.608 50.8575 19.608C51.1615 19.608 51.4335 19.696 51.6735 19.872C51.9295 20.032 52.0575 20.288 52.0575 20.64V25.344C52.0575 26.112 52.2335 26.68 52.5855 27.048C52.9535 27.416 53.3535 27.6 53.7855 27.6C54.2015 27.6 54.5855 27.416 54.9375 27.048C55.3055 26.68 55.4895 26.112 55.4895 25.344V20.64C55.4895 20.288 55.6095 20.032 55.8495 19.872C56.1055 19.696 56.3855 19.608 56.6895 19.608C56.9935 19.608 57.2655 19.696 57.5055 19.872C57.7615 20.032 57.8895 20.288 57.8895 20.64V25.344C57.8895 26.112 58.0655 26.68 58.4175 27.048C58.7855 27.416 59.1855 27.6 59.6175 27.6C60.0335 27.6 60.4175 27.416 60.7695 27.048C61.1375 26.68 61.3215 26.112 61.3215 25.344V20.64C61.3215 20.288 61.4415 20.032 61.6815 19.872C61.9375 19.696 62.2175 19.608 62.5215 19.608C62.8255 19.608 63.0975 19.696 63.3375 19.872C63.5935 20.032 63.7215 20.288 63.7215 20.64V25.368C63.7215 26.136 63.6015 26.808 63.3615 27.384C63.1215 27.96 62.8095 28.448 62.4255 28.848C62.0415 29.232 61.6015 29.52 61.1055 29.712C60.6095 29.904 60.1055 30 59.5935 30C59.0655 30 58.5455 29.896 58.0335 29.688C57.5215 29.48 57.0735 29.168 56.6895 28.752C56.2895 29.168 55.8335 29.48 55.3215 29.688C54.8255 29.896 54.3055 30 53.7615 30C53.2495 30 52.7455 29.904 52.2495 29.712C51.7535 29.52 51.3135 29.232 50.9295 28.848C50.5455 28.464 50.2335 27.984 49.9935 27.408C49.7695 26.816 49.6575 26.136 49.6575 25.368V20.64ZM71.4131 15.552C71.4131 14.992 71.7731 14.712 72.4931 14.712H74.7971C75.8371 14.712 76.7491 14.936 77.5331 15.384C78.3171 15.816 78.9731 16.392 79.5011 17.112C80.0291 17.816 80.4211 18.632 80.6771 19.56C80.9491 20.472 81.0851 21.408 81.0851 22.368C81.1011 23.312 80.9811 24.248 80.7251 25.176C80.4851 26.088 80.1091 26.904 79.5971 27.624C79.1011 28.328 78.4691 28.904 77.7011 29.352C76.9491 29.784 76.0611 30 75.0371 30H72.5411C71.7891 30 71.4131 29.72 71.4131 29.16V15.552ZM75.0131 27.6C75.8291 27.6 76.5091 27.344 77.0531 26.832C77.5971 26.304 77.9971 25.656 78.2531 24.888C78.5251 24.104 78.6531 23.264 78.6371 22.368C78.6371 21.456 78.4931 20.616 78.2051 19.848C77.9171 19.064 77.4851 18.416 76.9091 17.904C76.3331 17.376 75.6211 17.112 74.7731 17.112H73.8131V27.6H75.0131ZM87.0011 30.168C86.1851 30.168 85.4491 30.024 84.7931 29.736C84.1371 29.448 83.5771 29.064 83.1131 28.584C82.6491 28.088 82.2891 27.52 82.0331 26.88C81.7931 26.224 81.6731 25.528 81.6731 24.792C81.6731 24.056 81.7931 23.368 82.0331 22.728C82.2891 22.072 82.6491 21.504 83.1131 21.024C83.5771 20.528 84.1371 20.136 84.7931 19.848C85.4491 19.56 86.1851 19.416 87.0011 19.416C87.7691 19.416 88.4411 19.576 89.0171 19.896C89.5931 20.2 90.0571 20.608 90.4091 21.12C90.7771 21.616 91.0251 22.184 91.1531 22.824C91.2971 23.448 91.3051 24.08 91.1771 24.72C91.1611 24.8 91.1211 24.904 91.0571 25.032C90.9771 25.208 90.8571 25.36 90.6971 25.488C90.5531 25.616 90.3691 25.68 90.1451 25.68H84.1691C84.2651 26.032 84.4011 26.344 84.5771 26.616C84.7691 26.872 84.9851 27.088 85.2251 27.264C85.4651 27.424 85.7211 27.552 85.9931 27.648C86.2811 27.728 86.5611 27.768 86.8331 27.768C87.0411 27.768 87.2811 27.744 87.5531 27.696C87.8251 27.648 88.1451 27.464 88.5131 27.144C88.7691 26.936 89.0251 26.832 89.2811 26.832C89.5211 26.832 89.7451 26.912 89.9531 27.072C90.1611 27.216 90.3131 27.4 90.4091 27.624C90.5211 27.848 90.5611 28.088 90.5291 28.344C90.5131 28.584 90.4091 28.8 90.2171 28.992C89.8011 29.376 89.2971 29.672 88.7051 29.88C88.1291 30.072 87.5611 30.168 87.0011 30.168ZM88.6811 23.28C88.6011 22.992 88.4811 22.752 88.3211 22.56C88.1611 22.368 87.9931 22.216 87.8171 22.104C87.6411 21.992 87.4651 21.92 87.2891 21.888C87.1131 21.84 86.9611 21.816 86.8331 21.816C86.3851 21.816 85.9291 21.936 85.4651 22.176C85.0171 22.416 84.6651 22.784 84.4091 23.28H88.6811ZM96.6617 25.248C96.6617 25.84 96.7177 26.32 96.8297 26.688C96.9577 27.04 97.1177 27.312 97.3097 27.504C97.5017 27.696 97.7177 27.824 97.9577 27.888C98.2137 27.936 98.4697 27.96 98.7257 27.96C99.0617 27.96 99.3177 28.088 99.4937 28.344C99.6697 28.584 99.7577 28.856 99.7577 29.16C99.7577 29.464 99.6697 29.744 99.4937 30C99.3177 30.24 99.0617 30.36 98.7257 30.36C98.1657 30.36 97.6137 30.272 97.0697 30.096C96.5417 29.936 96.0697 29.664 95.6537 29.28C95.2377 28.88 94.9017 28.352 94.6457 27.696C94.3897 27.04 94.2617 26.224 94.2617 25.248V22.008H93.1817C92.8457 22.008 92.5897 21.888 92.4137 21.648C92.2377 21.392 92.1497 21.112 92.1497 20.808C92.1497 20.504 92.2377 20.232 92.4137 19.992C92.5897 19.736 92.8457 19.608 93.1817 19.608H94.2617V17.28C94.2617 16.944 94.3817 16.688 94.6217 16.512C94.8777 16.336 95.1577 16.248 95.4617 16.248C95.7657 16.248 96.0377 16.336 96.2777 16.512C96.5337 16.688 96.6617 16.944 96.6617 17.28V19.608H98.2217C98.5577 19.608 98.8137 19.736 98.9897 19.992C99.1657 20.232 99.2537 20.504 99.2537 20.808C99.2537 21.112 99.1657 21.392 98.9897 21.648C98.8137 21.888 98.5577 22.008 98.2217 22.008H96.6617V25.248ZM104.765 30C103.597 30 102.621 29.744 101.837 29.232C101.069 28.72 100.493 28.08 100.109 27.312C99.7251 26.544 99.5331 25.712 99.5331 24.816C99.5331 23.904 99.7251 23.064 100.109 22.296C100.493 21.528 101.069 20.888 101.837 20.376C102.621 19.864 103.597 19.608 104.765 19.608C105.533 19.608 106.237 19.736 106.877 19.992C107.517 20.232 108.061 20.584 108.509 21.048C108.973 21.496 109.325 22.04 109.565 22.68C109.821 23.32 109.949 24.024 109.949 24.792V28.968C109.949 29.304 109.821 29.56 109.565 29.736C109.325 29.912 109.053 30 108.749 30C108.493 30 108.253 29.944 108.029 29.832C107.821 29.704 107.677 29.52 107.597 29.28C107.197 29.504 106.757 29.68 106.277 29.808C105.813 29.936 105.309 30 104.765 30ZM104.765 22.008C104.141 22.008 103.613 22.152 103.181 22.44C102.765 22.712 102.445 23.056 102.221 23.472C102.013 23.872 101.909 24.32 101.909 24.816C101.909 25.296 102.013 25.744 102.221 26.16C102.429 26.56 102.741 26.904 103.157 27.192C103.589 27.464 104.125 27.6 104.765 27.6C105.597 27.6 106.269 27.368 106.781 26.904C107.293 26.424 107.549 25.72 107.549 24.792C107.549 23.88 107.293 23.192 106.781 22.728C106.269 22.248 105.597 22.008 104.765 22.008ZM112.64 18C112.224 18 111.912 17.872 111.704 17.616C111.496 17.36 111.392 17.08 111.392 16.776C111.392 16.472 111.496 16.192 111.704 15.936C111.912 15.68 112.224 15.552 112.64 15.552C113.056 15.552 113.368 15.68 113.576 15.936C113.784 16.192 113.888 16.472 113.888 16.776C113.888 17.08 113.784 17.36 113.576 17.616C113.368 17.872 113.056 18 112.64 18ZM111.44 20.64C111.44 20.304 111.56 20.048 111.8 19.872C112.056 19.696 112.336 19.608 112.64 19.608C112.944 19.608 113.216 19.696 113.456 19.872C113.712 20.048 113.84 20.304 113.84 20.64V28.968C113.84 29.304 113.712 29.56 113.456 29.736C113.216 29.912 112.944 30 112.64 30C112.336 30 112.056 29.912 111.8 29.736C111.56 29.56 111.44 29.304 111.44 28.968V20.64ZM115.329 15.72C115.329 15.384 115.449 15.128 115.689 14.952C115.945 14.776 116.225 14.688 116.529 14.688C116.833 14.688 117.105 14.776 117.345 14.952C117.601 15.128 117.729 15.384 117.729 15.72V28.968C117.729 29.304 117.601 29.56 117.345 29.736C117.105 29.912 116.833 30 116.529 30C116.225 30 115.945 29.912 115.689 29.736C115.449 29.56 115.329 29.304 115.329 28.968V15.72ZM119.293 22.704C119.277 22.144 119.389 21.648 119.629 21.216C119.869 20.784 120.189 20.424 120.589 20.136C121.005 19.848 121.469 19.632 121.981 19.488C122.509 19.328 123.045 19.24 123.589 19.224C124.501 19.192 125.341 19.36 126.109 19.728C126.893 20.096 127.469 20.656 127.837 21.408C128.077 21.92 128.141 22.344 128.029 22.68C127.933 23 127.749 23.216 127.477 23.328C127.205 23.44 126.893 23.44 126.541 23.328C126.205 23.216 125.917 22.984 125.677 22.632C125.373 22.136 125.077 21.816 124.789 21.672C124.501 21.528 124.141 21.448 123.709 21.432C123.405 21.416 123.117 21.44 122.845 21.504C122.589 21.568 122.365 21.664 122.173 21.792C121.997 21.904 121.861 22.04 121.765 22.2C121.669 22.36 121.645 22.536 121.693 22.728C121.741 22.984 121.933 23.176 122.269 23.304C122.605 23.432 123.005 23.544 123.469 23.64C123.949 23.736 124.461 23.84 125.005 23.952C125.549 24.064 126.053 24.232 126.517 24.456C126.981 24.68 127.365 24.984 127.669 25.368C127.973 25.752 128.133 26.272 128.149 26.928C128.149 27.472 128.029 27.96 127.789 28.392C127.565 28.824 127.253 29.192 126.853 29.496C126.453 29.8 125.997 30.024 125.485 30.168C124.973 30.328 124.453 30.408 123.925 30.408C123.477 30.408 123.029 30.36 122.581 30.264C122.133 30.168 121.709 30.024 121.309 29.832C120.909 29.64 120.541 29.392 120.205 29.088C119.885 28.784 119.621 28.416 119.413 27.984C119.173 27.504 119.109 27.096 119.221 26.76C119.333 26.408 119.517 26.16 119.773 26.016C120.045 25.856 120.349 25.824 120.685 25.92C121.021 26 121.293 26.232 121.501 26.616C121.741 27.048 122.045 27.392 122.413 27.648C122.781 27.888 123.245 28.032 123.805 28.08C124.061 28.096 124.301 28.08 124.525 28.032C124.765 27.984 124.973 27.912 125.149 27.816C125.325 27.704 125.461 27.576 125.557 27.432C125.653 27.272 125.677 27.096 125.629 26.904C125.581 26.648 125.389 26.456 125.053 26.328C124.717 26.2 124.317 26.088 123.853 25.992C123.389 25.88 122.893 25.768 122.365 25.656C121.837 25.528 121.341 25.352 120.877 25.128C120.429 24.888 120.053 24.584 119.749 24.216C119.445 23.832 119.293 23.328 119.293 22.704Z" fill="url(#paint0_linear_384_2631)"/>
</g>
<defs>
<filter id="filter0_d_384_2631" x="0" y="0" width="153" height="57" filterUnits="userSpaceOnUse" color-interpolation-filters="sRGB">
<feFlood flood-opacity="0" result="BackgroundImageFix"/>
<feColorMatrix in="SourceAlpha" type="matrix" values="0 0 0 0 0 0 0 0 0 0 0 0 0 0 0 0 0 0 127 0" result="hardAlpha"/>
<feOffset dy="4"/>
<feGaussianBlur stdDeviation="2"/>
<feComposite in2="hardAlpha" operator="out"/>
<feColorMatrix type="matrix" values="0 0 0 0 0 0 0 0 0 0 0 0 0 0 0 0 0 0 0.25 0"/>
<feBlend mode="normal" in2="BackgroundImageFix" result="effect1_dropShadow_384_2631"/>
<feBlend mode="normal" in="SourceGraphic" in2="effect1_dropShadow_384_2631" result="shape"/>
</filter>
<linearGradient id="paint0_linear_384_2631" x1="24" y1="24.5" x2="129" y2="24.5" gradientUnits="userSpaceOnUse">
<stop stop-color="#03BFB5"/>
<stop offset="1" stop-color="#9305F2"/>
</linearGradient>
</defs>
</svg>
