<svg width="26" height="26" viewBox="0 0 26 26" fill="none" xmlns="http://www.w3.org/2000/svg">
<path d="M23.8327 5.41683V9.75016L12.9993 14.0835L2.16602 9.75016V5.41683C2.16602 5.12951 2.28015 4.85396 2.48332 4.6508C2.68648 4.44763 2.96203 4.3335 3.24935 4.3335H22.7493C23.0367 4.3335 23.3122 4.44763 23.5154 4.6508C23.7185 4.85396 23.8327 5.12951 23.8327 5.41683ZM2.16602 12.0837V20.5835C2.16602 20.8708 2.28015 21.1464 2.48332 21.3495C2.68648 21.5527 2.96203 21.6668 3.24935 21.6668H22.7493C23.0367 21.6668 23.3122 21.5527 23.5154 21.3495C23.7185 21.1464 23.8327 20.8708 23.8327 20.5835V12.0837L12.9993 16.417L2.16602 12.0837Z" fill="#9305F2"/>
</svg>
