<svg width="16" height="17" viewBox="0 0 16 17" fill="none" xmlns="http://www.w3.org/2000/svg">
<g clip-path="url(#clip0_430_2318)">
<path d="M8.5731 10.7859L5.14453 11.403L5.71596 7.92871L12.2645 1.403C12.3708 1.29588 12.4972 1.21086 12.6364 1.15283C12.7757 1.09481 12.9251 1.06494 13.076 1.06494C13.2268 1.06494 13.3762 1.09481 13.5155 1.15283C13.6547 1.21086 13.7811 1.29588 13.8874 1.403L15.0988 2.61443C15.2059 2.72067 15.291 2.84707 15.349 2.98634C15.407 3.12561 15.4369 3.27498 15.4369 3.42585C15.4369 3.57672 15.407 3.7261 15.349 3.86537C15.291 4.00464 15.2059 4.13104 15.0988 4.23728L8.5731 10.7859Z" stroke="#03BFB5" stroke-width="2" stroke-linecap="round" stroke-linejoin="round"/>
<path d="M13.7151 11.3571V14.7856C13.7151 15.0887 13.5947 15.3794 13.3804 15.5938C13.1661 15.8081 12.8754 15.9285 12.5723 15.9285H1.71512C1.41202 15.9285 1.12133 15.8081 0.907001 15.5938C0.692673 15.3794 0.572266 15.0887 0.572266 14.7856V3.9285C0.572266 3.6254 0.692673 3.33471 0.907001 3.12038C1.12133 2.90605 1.41202 2.78564 1.71512 2.78564H5.14369" stroke="#03BFB5" stroke-width="2" stroke-linecap="round" stroke-linejoin="round"/>
</g>
<defs>
<clipPath id="clip0_430_2318">
<rect width="16" height="16" fill="white" transform="translate(0 0.5)"/>
</clipPath>
</defs>
</svg>
