<svg width="116" height="20" viewBox="0 0 116 20" fill="none" xmlns="http://www.w3.org/2000/svg">
<path d="M37.0105 19.2309C36.0686 19.2454 35.1341 19.0624 34.2673 18.6937C33.4861 18.3621 32.7806 17.875 32.1938 17.262C31.6069 16.649 31.151 15.9229 30.8538 15.128C30.2388 13.4643 30.2388 11.6357 30.8538 9.97202C31.151 9.1857 31.602 8.46649 32.1802 7.85638C32.7725 7.23961 33.4821 6.74742 34.2673 6.40872C35.1345 6.04103 36.0687 5.85807 37.0105 5.87149C37.8811 5.85144 38.7428 6.05091 39.516 6.45151C40.2066 6.8171 40.803 7.33786 41.2584 7.97286C41.7093 8.60671 42.0242 9.32703 42.1831 10.0885C42.3528 10.8713 42.3577 11.6808 42.1974 12.4656C42.1648 12.6005 42.1153 12.7307 42.05 12.8531C41.9503 13.0719 41.8024 13.2653 41.6174 13.4188C41.4169 13.5829 41.1631 13.6675 40.9042 13.6565H33.4805C33.5876 14.0665 33.7645 14.4549 34.0035 14.8047C34.2178 15.1163 34.4849 15.3882 34.7927 15.6082C35.0893 15.8161 35.4165 15.9766 35.7625 16.0836C36.0944 16.1905 36.4407 16.2458 36.7894 16.2476C37.0902 16.2431 37.39 16.2128 37.6856 16.1573C38.1345 16.036 38.544 15.8001 38.8742 15.4727C39.1363 15.2367 39.4726 15.0997 39.825 15.0852C40.1273 15.0855 40.4213 15.1849 40.6618 15.3681C40.9122 15.548 41.112 15.7896 41.2418 16.0693C41.3696 16.3438 41.4213 16.6476 41.3916 16.9488C41.3588 17.2604 41.2164 17.5502 40.9898 17.7666C40.4521 18.2565 39.817 18.6275 39.1262 18.8553C38.4465 19.0964 37.7316 19.2233 37.0105 19.2309ZM39.0976 10.6733C39.0132 10.3465 38.861 10.0411 38.6507 9.77709C38.4713 9.5579 38.2597 9.36716 38.0232 9.21134C37.8226 9.08118 37.6016 8.98556 37.3695 8.92846C37.1834 8.88317 36.9928 8.85845 36.8013 8.85477C36.212 8.86236 35.6338 9.0159 35.1183 9.30167C34.5426 9.6075 34.0783 10.0876 33.7919 10.6733H39.0976Z" fill="#6A0DAD"/>
<path d="M48.2018 13.1146C48.1843 13.7137 48.2597 14.3118 48.4252 14.8879C48.5382 15.271 48.7374 15.6231 49.0076 15.9172C49.2309 16.1466 49.5157 16.3067 49.8277 16.3783C50.1357 16.449 50.4507 16.4841 50.7667 16.4829C50.9514 16.4737 51.1355 16.5113 51.3018 16.5924C51.468 16.6734 51.6111 16.7952 51.7175 16.9465C51.9309 17.2469 52.0454 17.6061 52.0454 17.9746C52.0454 18.343 51.9309 18.7023 51.7175 19.0027C51.6105 19.1531 51.4673 19.2742 51.3011 19.3548C51.1349 19.4354 50.9512 19.4729 50.7667 19.4638C50.0742 19.464 49.3857 19.359 48.7248 19.1524C48.0614 18.9452 47.4547 18.5881 46.9514 18.1089C46.3934 17.5591 45.9654 16.8915 45.6987 16.1549C45.3544 15.1793 45.1933 14.1486 45.2233 13.1146V9.0901H43.8826C43.698 9.09984 43.514 9.06266 43.3477 8.98201C43.1814 8.90137 43.0383 8.77989 42.9317 8.62894C42.7182 8.32818 42.6035 7.96848 42.6035 7.59965C42.6035 7.23082 42.7182 6.87111 42.9317 6.57036C43.0383 6.4194 43.1814 6.29793 43.3477 6.21728C43.514 6.13664 43.698 6.09945 43.8826 6.1092H45.2233V3.21625C45.2153 3.03044 45.2548 2.84566 45.338 2.67931C45.4211 2.51297 45.5453 2.37053 45.6987 2.2654C45.9991 2.05209 46.3584 1.9375 46.7268 1.9375C47.0952 1.9375 47.4545 2.05209 47.7549 2.2654C47.9054 2.37247 48.0265 2.51569 48.1071 2.68185C48.1877 2.84802 48.2251 3.03179 48.2161 3.21625V6.1092H50.1558C50.3402 6.10012 50.524 6.1376 50.6902 6.21819C50.8563 6.29878 50.9996 6.41989 51.1066 6.57036C51.3201 6.87111 51.4348 7.23082 51.4348 7.59965C51.4348 7.96848 51.3201 8.32818 51.1066 8.62894C50.9996 8.77941 50.8563 8.90051 50.6902 8.9811C50.524 9.06169 50.3402 9.09918 50.1558 9.0901H48.2161L48.2018 13.1146Z" fill="#6A0DAD"/>
<path d="M58.6668 19.2309C57.7249 19.2454 56.7904 19.0624 55.9236 18.6937C55.1387 18.3567 54.4297 17.8652 53.8389 17.2484C53.2589 16.6386 52.8078 15.9183 52.5124 15.1304C51.8943 13.4673 51.8943 11.6375 52.5124 9.9744C52.8078 9.1872 53.259 8.46765 53.8389 7.85877C54.4302 7.24191 55.139 6.74969 55.9236 6.41111C56.7909 6.04423 57.7251 5.86208 58.6668 5.87626C59.3955 5.88058 60.1185 6.0059 60.8062 6.24709C61.4966 6.47581 62.1315 6.84669 62.6698 7.33581C62.8969 7.55276 63.0393 7.84349 63.0716 8.15591C63.1023 8.45875 63.0454 8.76405 62.9075 9.03544C62.7675 9.3126 62.5687 9.55595 62.3251 9.74858C62.0961 9.94086 61.8065 10.0461 61.5074 10.0457C61.152 10.0458 60.8107 9.90671 60.5566 9.65824C60.0812 9.22086 59.677 8.98314 59.349 8.94511C59.0572 8.90864 58.7635 8.8888 58.4695 8.88568C58.0578 8.88917 57.6498 8.9648 57.2643 9.10913C56.8562 9.25813 56.4815 9.4859 56.1613 9.77948C55.8189 10.0991 55.5447 10.4849 55.3555 10.9134C55.134 11.4311 55.027 11.9906 55.0417 12.5536C55.0276 13.1242 55.1345 13.6913 55.3555 14.2176C55.5422 14.6517 55.8165 15.0425 56.1613 15.3657C56.4815 15.6593 56.8562 15.8871 57.2643 16.036C57.6498 16.1804 58.0578 16.256 58.4695 16.2595C58.7636 16.2576 59.0573 16.2377 59.349 16.2001C59.677 16.1597 60.0812 15.9219 60.5566 15.4869C60.8073 15.2295 61.1482 15.0795 61.5074 15.0686C61.8067 15.0693 62.0962 15.1753 62.3251 15.3681C62.5693 15.5601 62.7682 15.8036 62.9075 16.0812C63.0454 16.3526 63.1023 16.6579 63.0716 16.9607C63.0388 17.2723 62.8964 17.5621 62.6698 17.7785C62.1321 18.2684 61.497 18.6394 60.8062 18.8672C60.1183 19.107 59.3952 19.2299 58.6668 19.2309Z" fill="#6A0DAD"/>
<path d="M69.7563 19.017C68.3063 19.017 67.0995 18.7001 66.136 18.0662C65.2163 17.4803 64.4696 16.6597 63.9728 15.6891C63.5035 14.7172 63.2598 13.6519 63.2598 12.5727C63.2598 11.4934 63.5035 10.4281 63.9728 9.45627C64.4696 8.48562 65.2163 7.66505 66.136 7.07915C67.0979 6.44525 68.3047 6.12831 69.7563 6.12831C70.6489 6.11921 71.5355 6.27556 72.3711 6.58947C73.1381 6.87523 73.8346 7.32267 74.4133 7.9014C74.992 8.48014 75.4395 9.17662 75.7252 9.94357C76.0389 10.7793 76.1953 11.6658 76.1864 12.5584C76.1981 13.4636 76.0417 14.3631 75.7252 15.2113C75.4395 15.9782 74.992 16.6747 74.4133 17.2534C73.8346 17.8322 73.1381 18.2796 72.3711 18.5654C71.5349 18.876 70.6483 19.0292 69.7563 19.017ZM69.7563 9.09019C69.0685 9.06625 68.3892 9.24746 67.8047 9.61078C67.3076 9.92439 66.8996 10.3608 66.6203 10.8779C66.3409 11.3951 66.1994 11.9755 66.2096 12.5632C66.2037 13.1408 66.3366 13.7115 66.5971 14.2271C66.8745 14.7514 67.2843 15.1939 67.7857 15.5108C68.3806 15.8763 69.0704 16.0575 69.7682 16.0314C70.8014 16.0314 71.6366 15.7382 72.2737 15.1518C72.9107 14.5655 73.2277 13.6939 73.2245 12.537C73.2245 11.4039 72.9076 10.5442 72.2737 9.95784C71.6398 9.37148 70.8006 9.08227 69.7563 9.09019Z" fill="#6A0DAD"/>
<path d="M77.9859 1.27924C77.9762 1.09469 78.0133 0.910686 78.094 0.744407C78.1746 0.578128 78.2961 0.434998 78.4471 0.32839C78.7475 0.115082 79.1067 0.000488281 79.4752 0.000488281C79.8436 0.000488281 80.2029 0.115082 80.5033 0.32839C80.6567 0.433515 80.7808 0.575957 80.864 0.742303C80.9472 0.908649 80.9866 1.09343 80.9787 1.27924V17.736C80.9866 17.9218 80.9472 18.1066 80.864 18.2729C80.7808 18.4393 80.6567 18.5817 80.5033 18.6869C80.2029 18.9002 79.8436 19.0148 79.4752 19.0148C79.1067 19.0148 78.7475 18.9002 78.4471 18.6869C78.2961 18.5802 78.1746 18.4371 78.094 18.2708C78.0133 18.1046 77.9762 17.9206 77.9859 17.736V1.27924Z" fill="#6A0DAD"/>
<path d="M82.7552 1.27905C82.7462 1.0946 82.7836 0.910828 82.8642 0.744662C82.9448 0.578497 83.0659 0.435279 83.2164 0.328206C83.5171 0.114697 83.8768 0 84.2457 0C84.6145 0 84.9742 0.114697 85.275 0.328206C85.4254 0.435279 85.5465 0.578497 85.6271 0.744662C85.7077 0.910828 85.7452 1.0946 85.7361 1.27905V17.7358C85.7452 17.9203 85.7077 18.1041 85.6271 18.2702C85.5465 18.4364 85.4254 18.5796 85.275 18.6867C84.9742 18.9002 84.6145 19.0149 84.2457 19.0149C83.8768 19.0149 83.5171 18.9002 83.2164 18.6867C83.0659 18.5796 82.9448 18.4364 82.8642 18.2702C82.7836 18.1041 82.7462 17.9203 82.7552 17.7358V1.27905Z" fill="#6A0DAD"/>
<path d="M94.0634 19.017C92.6133 19.017 91.4058 18.7 90.4406 18.0661C89.5223 17.4795 88.7765 16.659 88.2799 15.689C87.8091 14.7176 87.5645 13.6521 87.5645 12.5726C87.5645 11.4931 87.8091 10.4277 88.2799 9.45623C88.7765 8.48621 89.5223 7.66578 90.4406 7.07912C91.4058 6.44522 92.6133 6.12827 94.0634 6.12827C94.9559 6.11961 95.8424 6.27595 96.6782 6.58943C97.4428 6.87983 98.1383 7.32676 98.7201 7.9016C99.2955 8.48249 99.7419 9.1783 100.03 9.94354C100.35 10.778 100.511 11.6648 100.505 12.5584V17.7452C100.513 17.931 100.474 18.1158 100.391 18.2822C100.307 18.4485 100.183 18.591 100.03 18.6961C99.7312 18.9118 99.3715 19.0267 99.003 19.0241C98.6954 19.0272 98.3923 18.9502 98.1235 18.8007C97.86 18.6568 97.6624 18.4166 97.572 18.1303C96.4966 18.7281 95.2842 19.0361 94.0538 19.0241L94.0634 19.017ZM94.0634 9.09015C93.3756 9.06621 92.6962 9.24743 92.1118 9.61074C91.6094 9.92309 91.1966 10.3604 90.9137 10.8799C90.6308 11.3995 90.4874 11.9835 90.4977 12.575C90.4918 13.1527 90.6247 13.7233 90.8852 14.239C91.1578 14.7628 91.5636 15.2055 92.0618 15.5226C92.6565 15.8887 93.3465 16.0699 94.0444 16.0432C95.0776 16.0432 95.912 15.75 96.5474 15.1637C97.1829 14.5773 97.4999 13.7057 97.4983 12.5489C97.4983 11.4158 97.1813 10.556 96.5474 9.96969C95.9135 9.38333 95.0855 9.09015 94.0634 9.09015Z" fill="#6A0DAD"/>
<path d="M108.72 19.0168C107.49 19.0288 106.277 18.7208 105.202 18.123C105.156 18.2804 105.076 18.4258 104.968 18.549C104.86 18.6722 104.727 18.7702 104.577 18.8361C104.27 18.9813 103.93 19.0428 103.592 19.0144C103.259 18.9858 102.942 18.8555 102.684 18.6412C102.552 18.5341 102.446 18.3975 102.376 18.2423C102.306 18.0871 102.273 17.9176 102.28 17.7474V1.32153C102.273 1.13579 102.312 0.951171 102.396 0.784901C102.479 0.618632 102.603 0.47613 102.756 0.370687C103.057 0.158705 103.416 0.0449219 103.784 0.0449219C104.152 0.0449219 104.511 0.158705 104.812 0.370687C104.962 0.477913 105.083 0.621156 105.164 0.787284C105.244 0.953413 105.282 1.13711 105.273 1.32153V6.9862C106.328 6.39328 107.522 6.09445 108.732 6.12093C110.182 6.12093 111.389 6.43788 112.354 7.07178C113.273 7.65844 114.019 8.47887 114.515 9.44889C114.986 10.4203 115.231 11.4858 115.231 12.5653C115.231 13.6448 114.986 14.7103 114.515 15.6817C114.019 16.6517 113.273 17.4721 112.354 18.0588C111.381 18.6975 110.17 19.0168 108.72 19.0168ZM108.72 9.08994C107.685 9.08994 106.851 9.38312 106.217 9.96948C105.583 10.5558 105.266 11.4156 105.266 12.5486C105.266 13.7023 105.583 14.574 106.217 15.1635C106.851 15.753 107.685 16.0462 108.72 16.043C109.418 16.0691 110.107 15.8879 110.702 15.5224C111.204 15.2063 111.614 14.7636 111.891 14.2388C112.151 13.7231 112.284 13.1525 112.278 12.5748C112.284 11.9955 112.146 11.4237 111.877 10.9108C111.593 10.3909 111.185 9.94972 110.688 9.62718C110.101 9.25467 109.415 9.06748 108.72 9.08994Z" fill="#6A0DAD"/>
<path d="M18.5529 11.7264C19.4666 11.7264 20.2074 10.9857 20.2074 10.072C20.2074 9.15821 19.4666 8.41748 18.5529 8.41748C17.6392 8.41748 16.8984 9.15821 16.8984 10.072C16.8984 10.9857 17.6392 11.7264 18.5529 11.7264Z" fill="#6A0DAD"/>
<path d="M7.60176 11.7264C8.5155 11.7264 9.25622 10.9857 9.25622 10.072C9.25622 9.15821 8.5155 8.41748 7.60176 8.41748C6.68802 8.41748 5.94727 9.15821 5.94727 10.072C5.94727 10.9857 6.68802 11.7264 7.60176 11.7264Z" fill="#6A0DAD"/>
<path d="M14.4293 4.22655C14.4293 4.26221 14.4293 4.29787 14.4293 4.33352C14.427 4.38207 14.4223 4.43047 14.415 4.47853L14.4008 4.56172C14.4008 4.57836 14.4008 4.59501 14.4008 4.61164C14.3997 4.62351 14.3997 4.63544 14.4008 4.6473V4.66394C14.3647 4.80772 14.3095 4.94602 14.2367 5.07518C14.0855 5.34341 13.8749 5.57351 13.6211 5.74791C13.4595 5.86183 13.2769 5.94263 13.0839 5.98562C12.9967 6.00656 12.9073 6.01694 12.8176 6.01652C12.6754 6.01784 12.5345 5.98981 12.4036 5.93418C12.2727 5.87856 12.1547 5.79653 12.057 5.69323C11.5971 5.25863 11.0547 4.92075 10.4619 4.6996C9.81143 4.46011 9.12259 4.34168 8.42947 4.35016C7.65284 4.33232 6.88248 4.49299 6.17774 4.81981C5.473 5.14663 4.8527 5.63087 4.36461 6.23522C3.88738 6.82885 3.52975 7.50937 3.31153 8.23912C3.06109 9.0265 2.93047 9.84706 2.92406 10.6733C2.92035 11.5007 3.03889 12.3242 3.27587 13.117C3.49193 13.8519 3.84968 14.5375 4.32895 15.1351C4.79935 15.7113 5.38785 16.1798 6.05473 16.5091C6.78321 16.8618 7.58459 17.0377 8.39381 17.0226C9.0825 17.0311 9.76681 16.9119 10.412 16.6708C10.5189 16.6303 10.6212 16.5852 10.7234 16.5376C10.6756 16.7305 10.6516 16.9285 10.6521 17.1272C10.6526 17.3658 10.7014 17.6018 10.7953 17.8212C10.8892 18.0405 11.0265 18.2386 11.1988 18.4037C11.5056 18.7023 11.8399 18.9713 12.1972 19.2071C11.9645 19.3128 11.7264 19.4065 11.4841 19.4876C10.5277 19.8175 9.52425 19.9901 8.51266 19.9987C7.28357 20.0189 6.06546 19.7647 4.94699 19.2547C3.92258 18.778 3.01045 18.0903 2.27036 17.2365C1.52588 16.3631 0.955422 15.3553 0.589748 14.2675C0.194428 13.1106 -0.004819 11.8958 0.000227785 10.6733C-0.00767309 9.4548 0.190015 8.2437 0.584989 7.09097C0.953158 6.00857 1.52345 5.00591 2.2656 4.13622C3.00505 3.28179 3.91734 2.59392 4.94223 2.11805C6.06051 1.60723 7.27863 1.35223 8.50791 1.37164C9.51938 1.38141 10.5227 1.55398 11.4793 1.88272C11.9534 2.04121 12.4105 2.24666 12.8438 2.49601C12.9293 2.54593 13.0102 2.59585 13.0815 2.64815L13.1576 2.69807L13.2764 2.77889L13.3953 2.86209L13.5094 2.94766C13.5902 3.00947 13.6686 3.07365 13.7471 3.13783L13.8422 3.22103L13.9444 3.31374C13.98 3.34702 14.0157 3.37792 14.049 3.41358C14.1652 3.51534 14.2591 3.64015 14.3246 3.7801C14.39 3.92005 14.4257 4.07209 14.4293 4.22655Z" fill="#6A0DAD"/>
<path d="M25.7395 10.6495C25.7468 11.8733 25.5492 13.0898 25.1547 14.2484C24.7892 15.3368 24.2178 16.3448 23.4717 17.2174C22.7321 18.0717 21.8199 18.7595 20.7951 19.2356C19.6767 19.7458 18.4585 20 17.2294 19.9796C16.2186 19.971 15.2159 19.7984 14.2604 19.4686C14.0227 19.3925 13.8016 19.3045 13.5853 19.2094C13.3486 19.1046 13.1177 18.9872 12.8936 18.8576C12.4499 18.6006 12.0396 18.2901 11.6717 17.9329C11.5618 17.8299 11.4741 17.7055 11.414 17.5673C11.3539 17.4291 11.3227 17.2801 11.3223 17.1295C11.3203 16.8324 11.3957 16.5399 11.541 16.2808C11.6886 16.0146 11.8991 15.7885 12.1543 15.6224C12.3139 15.511 12.4928 15.4303 12.682 15.3847C12.7734 15.365 12.8666 15.3546 12.9601 15.3538C13.2418 15.3501 13.5141 15.4547 13.7208 15.6462C14.1007 15.997 14.533 16.2865 15.0021 16.5043C15.109 16.5518 15.2184 16.5994 15.3277 16.6422C15.973 16.8829 16.6572 17.0022 17.3459 16.994C18.123 17.0112 18.8937 16.85 19.5988 16.5228C20.3039 16.1956 20.9246 15.7111 21.4131 15.1065C21.8924 14.5089 22.2502 13.8233 22.4662 13.0884C22.7026 12.2955 22.8203 11.472 22.8157 10.6447C22.8209 9.82279 22.7031 9.00472 22.4662 8.21766C22.248 7.48791 21.8904 6.80739 21.4131 6.21376C20.9248 5.60908 20.3041 5.12465 19.5989 4.79782C18.8938 4.47099 18.1229 4.31049 17.3459 4.3287C16.6528 4.32043 15.964 4.43885 15.3135 4.67814C15.2136 4.71617 15.1162 4.75658 15.0211 4.80175C15.0669 4.61182 15.0901 4.41712 15.09 4.22173C15.0895 3.98312 15.0407 3.74708 14.9468 3.52773C14.8529 3.30839 14.7156 3.11027 14.5433 2.94522C14.2363 2.6475 13.9021 2.37929 13.5449 2.14413C13.7826 2.04192 14.0203 1.94683 14.258 1.86363C15.2134 1.53304 16.2161 1.35963 17.2271 1.35018C18.4563 1.33053 19.6745 1.58554 20.7927 2.09659C21.8152 2.572 22.7251 3.25908 23.4622 4.11238C24.2062 4.9812 24.7774 5.98408 25.1452 7.06714C25.5434 8.21931 25.7443 9.43042 25.7395 10.6495Z" fill="#6A0DAD"/>
</svg>
